<svg width="75" height="173" viewBox="0 0 75 173" fill="none" xmlns="http://www.w3.org/2000/svg">
<g opacity="0.1">
<path d="M17.4046 0.071063C14.396 1.20116 11.608 2.84944 9.16804 4.94125C8.35723 5.79598 7.47144 6.57561 6.52033 7.27042C4.50884 8.52647 3.07681 10.5292 2.5402 12.8393C2.3549 14.1303 2.04215 15.3998 1.60836 16.6296C1.25919 17.2954 1.10495 18.0466 1.16493 18.7957C1.22491 19.5454 1.4959 20.263 1.94682 20.865C2.73085 22.0078 3.40778 23.2149 4.06435 24.4006C4.55169 25.2478 4.53027 26.0522 3.51381 26.5181C2.49736 26.9841 2.77262 27.3857 3.09073 28.1065C3.30173 28.6217 3.30173 29.2001 3.09073 29.7153C1.96824 32.2141 0.655098 34.6283 -0.361359 37.1475C-1.97333 40.5739 -3.90127 43.8418 -6.12054 46.9093C-7.2002 48.6027 -8.8097 49.9373 -9.99549 51.546C-12.1129 54.4476 -14.6326 57.031 -16.6866 60.0161C-20.0746 64.9077 -23.9495 69.3966 -27.7185 74.0547C-30.8789 78.1484 -33.498 82.6319 -35.5107 87.395C-36.3365 89.3219 -37.3106 91.1856 -38.2211 93.0482C-39.8516 96.4157 -41.5243 99.7392 -43.0701 103.107C-44.1289 105.372 -44.9547 107.722 -45.971 109.988C-47.178 112.677 -48.4484 115.324 -49.74 117.971C-51.667 121.973 -53.4456 126.038 -55.6055 129.914C-59.0556 135.558 -63.2825 140.691 -68.1619 145.159C-68.5714 145.577 -69.0712 145.895 -69.623 146.09C-73.3779 147.234 -77.147 148.343 -80.9302 149.415C-82.5075 149.724 -83.9713 150.456 -85.1651 151.532C-87.2825 153.65 -89.5271 155.767 -91.6657 158.012C-92.6935 159.108 -94.0429 159.849 -95.5194 160.13C-96.6101 160.361 -97.7129 160.53 -98.8226 160.638C-99.7755 160.638 -100.728 160.447 -101.681 160.51C-103.006 160.651 -104.237 161.26 -105.154 162.226C-105.928 163.091 -106.854 163.809 -107.885 164.343C-109.968 165.264 -111.793 166.682 -113.2 168.472C-113.888 169.412 -114.49 170.411 -115 171.458C-113.327 172.071 -112.163 172.474 -110.765 171.817C-109.368 171.161 -107.441 170.335 -105.768 169.552C-103.769 168.424 -101.567 167.705 -99.2885 167.435C-96.6768 167.293 -94.0584 167.342 -91.4539 167.582C-90.3746 167.709 -89.2808 167.586 -88.2566 167.223C-86.5698 166.496 -84.9713 165.579 -83.4923 164.491C-81.9403 163.178 -80.0839 162.275 -78.0928 161.866C-76.0934 161.524 -74.06 161.425 -72.0369 161.569C-67.3361 161.992 -62.6565 162.607 -57.9769 163.263C-53.1614 164.155 -48.2538 164.446 -43.3666 164.131C-40.2962 163.813 -37.226 163.729 -34.1768 163.412C-31.1614 163.281 -28.1741 162.776 -25.2834 161.908C-24.6453 161.761 -23.9885 161.711 -23.3354 161.76C-20.6462 161.76 -17.957 161.76 -15.2891 161.548C-12.2399 161.294 -9.21201 160.701 -6.16232 160.32C-2.16827 159.651 1.71867 158.455 5.3989 156.762C10.057 154.857 14.6305 152.761 19.2255 150.706C20.981 150.014 22.6797 149.186 24.3077 148.229C27.8219 145.964 31.3372 143.698 34.6833 141.241C38.0283 138.785 41.988 136.901 44.444 133.343C44.5394 133.175 44.6786 133.036 44.8467 132.942C46.1877 132.174 47.2942 131.053 48.0439 129.702C48.2678 129.38 48.5152 129.075 48.7851 128.791C51.2829 126.259 53.5771 123.533 55.6454 120.639C58.7858 116.701 61.6991 112.586 64.3693 108.315C66.5875 104.905 68.3451 101.217 69.5994 97.3464C70.1713 95.0811 71.0186 92.8575 71.7169 90.5922C72.607 87.5214 73.5806 84.4303 74.1729 81.2963C75.1283 76.8267 75.2568 72.2189 74.5542 67.7022C74.1311 65.2044 74.0465 62.6413 73.708 60.1007C73.496 58.5552 72.9668 57.0514 72.7965 55.4844C72.2482 51.922 71.2306 48.4474 69.7686 45.1517C68.4565 41.5946 66.9313 38.1008 65.7671 34.5641C65.1587 32.3587 64.0169 30.3376 62.4424 28.6774C61.848 28.0658 61.3028 27.4071 60.8123 26.7088C58.3477 22.8443 55.2812 19.3987 51.7284 16.5025C49.6109 14.9568 47.8533 12.7335 45.0792 12.077C44.987 12.0517 44.9014 12.0063 44.8275 11.9441C44.7546 11.8818 44.6957 11.8044 44.6561 11.7171C43.7671 9.76904 41.7556 8.92202 40.421 7.48217C40.1543 7.19298 39.7945 7.00587 39.4046 6.95285C37.5184 6.41024 35.5648 6.13926 33.6026 6.14815C32.2883 6.26982 30.9795 5.86645 29.9609 5.02587C27.1804 3.02713 24.0796 1.51627 20.7924 0.558079C19.7374 0.058742 18.5571 -0.11102 17.4046 0.071063Z" fill="white"/>
<path d="M17.4046 0.071063C14.396 1.20116 11.608 2.84944 9.16804 4.94125C8.35723 5.79598 7.47144 6.57561 6.52033 7.27042C4.50884 8.52647 3.07681 10.5292 2.5402 12.8393C2.3549 14.1303 2.04215 15.3998 1.60836 16.6296C1.25919 17.2954 1.10495 18.0466 1.16493 18.7957C1.22491 19.5454 1.4959 20.263 1.94682 20.865C2.73085 22.0078 3.40778 23.2149 4.06435 24.4006C4.55169 25.2478 4.53027 26.0522 3.51381 26.5181C2.49736 26.9841 2.77262 27.3857 3.09073 28.1065C3.30173 28.6217 3.30173 29.2001 3.09073 29.7153C1.96824 32.2141 0.655098 34.6283 -0.361359 37.1475C-1.97333 40.5739 -3.90127 43.8418 -6.12054 46.9093C-7.2002 48.6027 -8.8097 49.9373 -9.99549 51.546C-12.1129 54.4476 -14.6326 57.031 -16.6866 60.0161C-20.0746 64.9077 -23.9495 69.3966 -27.7185 74.0547C-30.8789 78.1484 -33.498 82.6319 -35.5107 87.395C-36.3365 89.3219 -37.3106 91.1856 -38.2211 93.0482C-39.8516 96.4157 -41.5243 99.7392 -43.0701 103.107C-44.1289 105.372 -44.9547 107.722 -45.971 109.988C-47.178 112.677 -48.4484 115.324 -49.74 117.971C-51.667 121.973 -53.4456 126.038 -55.6055 129.914C-59.0556 135.558 -63.2825 140.691 -68.1619 145.159C-68.5714 145.577 -69.0712 145.895 -69.623 146.09C-73.3779 147.234 -77.147 148.343 -80.9302 149.415C-82.5075 149.724 -83.9713 150.456 -85.1651 151.532C-87.2825 153.65 -89.5271 155.767 -91.6657 158.012C-92.6935 159.108 -94.0429 159.849 -95.5194 160.13C-96.6101 160.361 -97.7129 160.53 -98.8226 160.638C-99.7755 160.638 -100.728 160.447 -101.681 160.51C-103.006 160.651 -104.237 161.26 -105.154 162.226C-105.928 163.091 -106.854 163.809 -107.885 164.343C-109.968 165.264 -111.793 166.682 -113.2 168.472C-113.888 169.412 -114.49 170.411 -115 171.458C-113.327 172.071 -112.163 172.474 -110.765 171.817C-109.368 171.161 -107.441 170.335 -105.768 169.552C-103.769 168.424 -101.567 167.705 -99.2885 167.435C-96.6768 167.293 -94.0584 167.342 -91.4539 167.582C-90.3746 167.709 -89.2808 167.586 -88.2566 167.223C-86.5698 166.496 -84.9713 165.579 -83.4923 164.491C-81.9403 163.178 -80.0839 162.275 -78.0928 161.866C-76.0934 161.524 -74.06 161.425 -72.0369 161.569C-67.3361 161.992 -62.6565 162.607 -57.9769 163.263C-53.1614 164.155 -48.2538 164.446 -43.3666 164.131C-40.2962 163.813 -37.226 163.729 -34.1768 163.412C-31.1614 163.281 -28.1741 162.776 -25.2834 161.908C-24.6453 161.761 -23.9885 161.711 -23.3354 161.76C-20.6462 161.76 -17.957 161.76 -15.2891 161.548C-12.2399 161.294 -9.21201 160.701 -6.16232 160.32C-2.16827 159.651 1.71867 158.455 5.3989 156.762C10.057 154.857 14.6305 152.761 19.2255 150.706C20.981 150.014 22.6797 149.186 24.3077 148.229C27.8219 145.964 31.3372 143.698 34.6833 141.241C38.0283 138.785 41.988 136.901 44.444 133.343C44.5394 133.175 44.6786 133.036 44.8467 132.942C46.1877 132.174 47.2942 131.053 48.0439 129.702C48.2678 129.38 48.5152 129.075 48.7851 128.791C51.2829 126.259 53.5771 123.533 55.6454 120.639C58.7858 116.701 61.6991 112.586 64.3693 108.315C66.5875 104.905 68.3451 101.217 69.5994 97.3464C70.1713 95.0811 71.0186 92.8575 71.7169 90.5922C72.607 87.5214 73.5806 84.4303 74.1729 81.2963C75.1283 76.8267 75.2568 72.2189 74.5542 67.7022C74.1311 65.2044 74.0465 62.6413 73.708 60.1007C73.496 58.5552 72.9668 57.0514 72.7965 55.4844C72.2482 51.922 71.2306 48.4474 69.7686 45.1517C68.4565 41.5946 66.9313 38.1008 65.7671 34.5641C65.1587 32.3587 64.0169 30.3376 62.4424 28.6774C61.848 28.0658 61.3028 27.4071 60.8123 26.7088C58.3477 22.8443 55.2812 19.3987 51.7284 16.5025C49.6109 14.9568 47.8533 12.7335 45.0792 12.077C44.987 12.0517 44.9014 12.0063 44.8275 11.9441C44.7546 11.8818 44.6957 11.8044 44.6561 11.7171C43.7671 9.76904 41.7556 8.92202 40.421 7.48217C40.1543 7.19298 39.7945 7.00587 39.4046 6.95285C37.5184 6.41024 35.5648 6.13926 33.6026 6.14815C32.2883 6.26982 30.9795 5.86645 29.9609 5.02587C27.1804 3.02713 24.0796 1.51627 20.7924 0.558079C19.7374 0.058742 18.5571 -0.11102 17.4046 0.071063ZM17.5739 3.5013L19.6914 7.10098C17.9123 7.10098 17.5739 5.40707 16.1975 4.98357C15.2657 6.86813 17.9337 7.10098 17.6156 8.58324C16.6635 9.19729 16.1547 8.28677 15.4992 7.79975C14.8844 7.19073 14.3039 6.54745 13.7619 5.87288L17.5739 3.5013ZM12.5559 27.3439C12.272 26.5106 11.7022 25.8048 10.946 25.3539C9.90815 24.6127 8.6175 24.0621 8.36259 22.5584C8.34223 22.4662 8.30154 22.3806 8.24262 22.3077C8.18372 22.2338 8.10873 22.1749 8.02412 22.1353C6.52032 21.7754 6.13902 20.3562 5.44068 19.3183C4.84944 18.3554 4.55383 17.2402 4.59132 16.1107C4.6288 14.9811 4.99833 13.8877 5.65276 12.9664C5.80057 13.5381 5.90659 14.1098 6.09724 14.6603C6.22684 15.0926 6.45071 15.4905 6.75383 15.8249C6.90163 15.9944 7.32578 15.8249 7.64281 15.8249C7.64281 15.5496 7.64281 15.2956 7.53678 15.0203L6.52033 11.7171C7.54856 10.5773 8.83386 9.69899 10.2691 9.15499C9.78176 9.15499 9.48508 8.77379 9.97241 8.4138C10.9889 7.63042 12.0899 6.93164 13.085 6.29638C13.7833 7.31273 14.3981 8.13854 14.9486 9.04906C15.09 9.40541 15.1554 9.788 15.1382 10.1713C14.7484 10.0975 14.3713 9.96922 14.0168 9.79013C13.417 9.27677 12.844 8.73255 12.3009 8.15974L10.1834 9.26081C12.1531 9.15498 13.3174 10.4889 12.8943 12.7547L10.7768 10.2561C9.33727 10.129 10.6076 11.6536 9.80318 12.0347C9.14019 12.421 8.51039 12.8601 7.91808 13.3475C7.77028 13.898 7.6214 14.4909 7.47359 15.0838C7.86239 15.1274 8.22334 15.306 8.49433 15.5884C8.76531 15.8709 8.92812 16.2392 8.95596 16.6296C9.1252 19.4458 11.3059 21.0974 12.5976 23.2567C12.8815 23.6701 13.1096 24.1189 13.2756 24.5913C13.3806 24.9629 13.5605 25.3089 13.8058 25.6088C14.05 25.9076 14.3531 26.1529 14.6969 26.3296C15.0408 26.5064 15.4167 26.6113 15.8023 26.636C16.1879 26.6606 16.5745 26.606 16.9387 26.4753C16.1375 26.3821 15.3835 26.049 14.7762 25.521C14.1678 24.9919 13.733 24.2914 13.5295 23.5116C14.8426 24.3374 15.8591 24.9297 16.8113 25.6291C16.9805 25.7555 16.8112 26.1797 16.9387 26.4967C18.0269 26.637 19.1227 26.7152 20.2205 26.7302C21.3644 26.6467 22.503 26.4978 23.6297 26.2846L25.7473 29.6521L23.905 30.0966C23.6929 28.4868 23.1638 27.3011 21.4908 27.1747C21.4908 28.2758 21.4908 28.2758 22.1902 29.7999C21.7243 30.2026 21.343 30.5839 20.8556 29.7999C20.1102 28.7888 19.2008 27.9084 18.1662 27.1961C18.1662 28.2329 18.1662 28.762 18.1662 29.4829L17.0019 28.445C16.7481 28.6774 16.4514 28.8263 16.325 29.0802C16.2564 29.2312 16.1547 29.3651 16.0283 29.4722C15.9008 29.5793 15.7509 29.6553 15.5902 29.696C15.4296 29.7367 15.2614 29.741 15.0986 29.7078C14.9369 29.6735 14.7837 29.6039 14.6519 29.5032C13.7522 29.0095 13.0218 28.2576 12.5559 27.3439ZM31.485 17.6248C29.4532 19.4115 27.1879 20.9143 24.7522 22.0924C23.9714 22.4384 23.1285 22.6194 22.2748 22.6216C25.336 20.7097 28.0672 18.3137 30.3636 15.5284C29.6428 15.4226 29.1983 15.2109 28.9659 15.3591C28.0137 15.7942 27.1579 16.413 26.4456 17.1802C24.6259 19.2434 22.3498 20.8532 19.7974 21.8804C18.9331 22.3484 18.0248 22.7308 17.0865 23.0243C16.6206 23.1935 16.0283 23.3424 15.8162 22.4106L22.2962 18.6414C22.4655 18.5354 22.6979 18.4925 22.8039 18.3447C23.7775 17.0107 24.7308 15.6556 25.9165 13.9828C25.4624 14.0539 25.02 14.1894 24.6034 14.3851C23.7144 15.0414 22.8671 15.7402 22.021 16.5025C20.3683 17.8554 18.5282 18.9606 16.5574 19.7843C15.8794 20.1024 15.0536 19.9749 14.4399 20.9068C13.8262 21.8386 13.2114 20.4623 12.6608 19.9117C16.7052 16.6084 21.66 14.7662 24.9 10.2984C26.4038 11.0394 28.1615 11.5689 28.9873 13.4745C29.2583 13.9262 29.6364 14.3043 30.0883 14.5756L34.1113 17.6035L32.629 19.0013C32.629 18.2387 32.629 17.8365 32.629 17.2437C32.2273 17.2995 31.8396 17.4286 31.485 17.6248ZM58.187 38.6299C58.187 39.2865 58.187 39.9634 58.0381 40.62H57.7843L57.1063 39.1172C57.4876 38.9266 57.8261 38.7145 58.187 38.5453L59.5419 37.2321C60.643 38.948 60.643 38.948 59.5419 39.8156L58.1013 38.5453L58.187 38.6299ZM46.8368 45.4484L49.7384 45.6176C49.9922 46.8033 50.2043 47.7351 50.4367 49.0054L47.2395 48.5181C47.1335 47.6291 47.006 46.6758 46.8368 45.4484ZM45.1638 48.2225C44.1687 47.6291 44.127 47.417 44.5501 45.2149C45.2912 46.528 45.2912 46.528 45.1638 48.2225ZM31.4004 62.8534L28.8384 62.5996L30.9559 64.399C30.9559 65.0138 30.7653 65.6489 30.6389 66.5165L26.6148 64.8649C27.3357 66.5808 29.1137 66.9824 30.1933 68.1681C30.1933 68.9725 29.9823 69.7779 29.8131 70.8147L24.3281 67.9143L27.2928 58.4706C28.6692 59.1689 29.9181 59.7194 31.0834 60.3974C32.2477 61.0754 31.7603 61.9012 31.4004 62.8534ZM34.5772 64.7385L32.6707 63.7424C32.6707 63.0441 32.8614 62.4303 32.9471 61.8155C35.3388 62.049 35.5937 62.5364 34.5772 64.7385ZM32.3322 65.5847C34.619 66.2198 34.6404 66.2198 34.1113 68.5076L31.9938 67.4066C32.0998 66.6225 32.2262 66.072 32.3322 65.5847ZM31.7817 69.0582L33.8992 69.9686C33.6872 70.7515 33.4547 71.5356 33.2009 72.4663C32.4383 72.1065 31.8031 71.8108 31.0834 71.4295C31.274 70.5191 31.5065 69.8197 31.7817 68.9939V69.0582ZM33.73 56.8404C35.3184 57.0942 35.5294 57.2635 35.5723 58.6398C35.5723 59.4656 35.5723 60.2914 35.5723 61.3925C32.9888 59.6562 32.9888 59.6562 33.73 56.7761V56.8404ZM31.7399 58.9579C30.0455 58.4277 29.9823 58.0893 30.8081 55.1245L32.5015 55.7393L31.7399 58.9579ZM28.7324 57.6865C27.9494 57.7926 27.5049 57.5816 27.5681 56.9036C27.8434 53.0712 28.14 49.2379 28.4571 45.1303C29.7285 45.8083 29.4532 46.6126 29.495 47.2478C29.4104 48.5449 29.4104 49.8462 29.495 51.1444C29.6856 52.3301 28.817 53.2619 29.0719 54.5108C29.1222 55.539 29.0087 56.5683 28.7324 57.5601V57.6865ZM33.9421 54.5322C33.9421 53.4097 34.8311 53.4525 35.7201 53.0712C35.7201 53.9388 35.7201 54.7229 35.7201 55.6547C34.7882 55.358 34.0267 55.3366 33.9421 54.4047V54.5322ZM32.2262 54.1295C30.5543 53.7064 30.1087 52.9866 30.7021 50.9955C32.8828 51.801 32.9042 51.8642 32.2262 54.0031V54.1295ZM34.0053 48.4977C36.1228 49.3653 36.1228 49.4082 35.3816 51.9488C33.3273 51.2708 34.8525 49.3867 34.0053 48.3703V48.4977ZM32.5443 50.2543C30.8713 50.2543 30.6592 49.9587 30.7867 48.6027C30.7867 47.9044 30.9773 47.206 31.1048 46.3588C33.0734 47.3967 33.2223 47.3538 32.5443 50.1279V50.2543ZM34.1531 45.1731C35.3184 45.1731 35.4877 45.8929 35.4662 47.0357C34.3652 46.528 33.7086 46.2099 34.1531 45.0457V45.1731ZM32.5015 45.7451L30.7867 44.961C30.8927 44.3259 30.9773 43.7754 31.062 43.2034C32.7982 43.6061 32.7982 43.6061 32.5015 45.6176V45.7451ZM34.9789 41.51L35.191 43.8386C33.8146 42.5897 33.8146 42.5897 34.9789 41.3611V41.51ZM33.0317 42.3358C32.615 42.2662 32.2048 42.1677 31.8031 42.0391C31.5686 41.9352 31.3426 41.8153 31.1252 41.6793C31.1048 41.3547 31.1048 41.0291 31.1252 40.7046C31.2098 40.304 31.3158 39.9088 31.4433 39.5189C32.9674 39.7095 32.735 40.9166 33.0317 42.293V42.3358ZM29.4104 44.1352H28.9873C28.9873 42.2084 29.1983 40.3029 29.3472 37.9733C29.9363 39.9313 29.9577 42.0166 29.4104 43.9874V44.1352ZM31.1048 32.1081H31.5911C32.192 34.1699 32.4565 36.3142 32.3751 38.4607C31.8878 38.1426 31.4218 37.9947 31.4004 37.8041C31.2526 35.9404 31.1048 33.9718 31.1048 32.1081ZM29.7488 37.2536C29.2626 36.9151 28.8812 36.8091 28.8812 36.6398C28.7141 34.8029 28.923 32.951 29.495 31.1977C30.2233 33.1385 30.3058 35.2624 29.7285 37.2536H29.7488ZM33.5608 33.8229C34.348 35.4766 34.6351 37.3242 34.3866 39.1376C33.5651 37.4956 33.2769 35.6373 33.5608 33.8229ZM37.7958 32.6372C39.1079 32.2141 39.7013 32.6372 39.9133 33.9289L38.6002 34.5855C38.8326 34.8393 38.9387 35.0514 39.0661 35.0514C39.4281 35.0407 39.7816 35.1617 40.0612 35.391C40.3418 35.6212 40.5292 35.9436 40.5903 36.3003C41.1408 38.7574 41.7556 41.2133 42.3908 43.9232L40.0826 44.3473C39.3628 40.4293 38.6002 36.6184 37.8376 32.7015L37.7958 32.6372ZM26.3192 25.3539C26.8901 26.6242 27.3989 27.8099 27.928 28.9955L27.5681 29.228L25.0489 25.8616L26.3192 25.3539ZM17.5107 25.6923C18.209 25.2746 18.992 25.0208 19.8017 24.9469C20.6115 24.874 21.4276 24.9833 22.1902 25.2693C21.5358 25.7834 20.7496 26.1026 19.9227 26.1925C19.0959 26.2825 18.2594 26.139 17.5107 25.777V25.6923ZM37.0761 30.6043C36.7794 29.7367 36.3135 28.8049 37.436 27.7252L39.0661 30.8378C37.6266 31.8114 37.4563 31.7054 37.0761 30.69V30.6043ZM44.6775 31.5576C45.7786 31.1548 46.0753 31.9806 46.5401 33.1031C45.5451 33.1031 44.7407 33.8443 44.4226 32.6372C44.2962 32.4262 44.4654 31.7054 44.6775 31.7054V31.5576ZM42.3062 33.8229C41.3947 33.6751 41.3529 32.9767 41.2683 32.2773C42.6018 32.3834 42.6018 32.3834 42.3062 33.8229ZM50.7752 36.1739C49.4631 36.1739 49.4834 35.2206 49.0604 34.7547C49.0604 35.2206 49.0604 35.708 49.251 36.4278L45.5033 36.8305L44.9742 34.713C46.0538 34.713 46.9011 33.9504 47.7901 34.924C47.9593 35.1146 48.6159 34.924 49.0604 34.7762L49.8433 34.3734L50.7752 36.1739ZM51.8345 34.6701C52.6174 35.1789 52.6389 35.1575 53.2526 36.2799C52.279 35.9404 52.279 35.9404 51.9405 34.7547L51.8345 34.6701ZM46.5198 39.9634L45.8418 38.27C49.1032 37.0211 50.2675 37.381 50.8812 39.731C49.6741 40.3875 49.8015 38.9898 49.0818 38.5453C48.9372 39.0594 48.6041 39.4996 48.1478 39.7792C47.6926 40.0576 47.1485 40.154 46.6258 40.0491L46.5198 39.9634ZM44.3176 40.1755C44.0209 40.1755 43.555 40.1755 43.4918 40.1755C43.2487 39.686 43.0495 39.1761 42.8985 38.6513C43.449 38.1426 43.8517 38.2068 44.0424 38.7574C44.1741 39.2211 44.2662 39.6956 44.3176 40.1755ZM42.56 36.9997C42.3426 36.4085 42.1798 35.799 42.0726 35.1789C43.1737 35.3695 43.9577 36.5756 43.4704 37.0843C43.3247 37.1486 43.1662 37.1764 43.0066 37.1657C42.8481 37.155 42.6949 37.1047 42.56 37.0211V36.9997ZM53.3586 37.8255C54.6503 37.9947 54.6717 38.0162 54.7349 39.7942C53.2526 39.8788 53.2526 39.8788 53.3586 37.8469V37.8255ZM43.8089 41.3397C44.0702 41.4436 44.3016 41.6086 44.4826 41.8228C44.6647 42.0359 44.7921 42.2908 44.8521 42.564C44.9131 42.8382 44.9057 43.122 44.8307 43.393C44.7557 43.6629 44.6154 43.9103 44.4226 44.1138C44.1409 43.7164 43.9417 43.2655 43.8367 42.7889C43.7307 42.3133 43.721 41.8206 43.8089 41.3397ZM51.3053 45.9561C53.0619 44.9825 54.0366 45.4055 54.5443 49.0054C52.1515 49.556 51.7702 49.2175 51.2411 45.9561H51.3053ZM56.408 48.3917C56.2602 47.7137 55.9849 47.0571 55.6882 46.1467L57.1909 45.7451C57.8743 46.799 58.2481 48.0243 58.2716 49.2807C57.2338 49.6192 56.514 49.556 56.3448 48.3917H56.408ZM46.7736 44.4105C46.7736 43.2677 46.6258 42.4836 46.5615 41.4672L48.8911 41.2551C49.0604 42.2512 49.2082 43.0556 49.3785 44.1567L46.7736 44.4105ZM50.3092 41.4886C50.6381 41.3279 51.014 41.2905 51.3675 41.3836C51.7209 41.4779 52.0294 41.6953 52.2361 41.9963C53.0201 42.971 53.0833 43.0556 52.8081 44.4533H51.1351C50.8598 43.3941 50.5845 42.4204 50.3092 41.3826V41.4886ZM54.7981 44.4105C54.5025 43.4787 54.2058 42.5051 53.9091 41.51C56.0267 41.1501 56.8525 41.9545 56.8107 44.7072L54.7981 44.4105ZM60.9601 40.832C62.3578 42.7161 62.3364 43.0556 60.6644 43.4787C59.7112 41.4458 59.7112 41.4458 60.9601 40.8749V40.832ZM56.725 37.5502C55.4761 36.0893 56.0481 35.0943 58.4409 34.5437C59.1606 36.2371 59.1606 36.2371 56.7893 37.592L56.725 37.5502ZM55.0102 34.819C55.0102 33.9289 55.0102 33.252 55.1794 32.9971C55.3487 32.7432 56.5354 31.8757 57.5305 33.1877L55.0102 34.819ZM50.2675 32.468C48.4466 33.1674 48.15 33.0817 47.3456 31.3669L49.1032 30.584C49.5895 31.3251 49.9708 31.896 50.3307 32.5108L50.2675 32.468ZM53.9938 30.8378C54.5604 30.4983 55.1473 30.1941 55.7514 29.9274C55.7514 30.4993 56.0052 31.1548 55.8789 31.2191C55.3165 31.61 54.6568 31.8382 53.9723 31.8757C53.5493 31.8757 53.5707 31.1763 54.058 30.8796L53.9938 30.8378ZM42.8138 28.4022C42.6232 27.1533 40.887 26.4967 42.0309 24.994C43.555 26.4549 43.8089 27.2379 42.877 28.445L42.8138 28.4022ZM44.9314 25.3742L48.0439 29.228C48.0536 29.3479 48.0536 29.469 48.0439 29.5878C47.5994 29.5878 46.9643 29.7153 46.7522 29.4615C45.8782 28.2758 45.1134 27.0151 44.4654 25.6923L44.9314 25.3742ZM39.9337 29.0802C39.7013 28.4664 39.5106 27.8945 39.1722 26.9626C40.9084 27.8516 40.993 28.1912 39.8919 29.123L39.9337 29.0802ZM31.1048 27.9791C30.6389 28.5725 30.1301 28.8681 29.6224 28.2115C29.1137 27.556 28.2664 26.2 27.5049 25.099C27.8219 24.9083 28.1401 24.633 28.2247 24.6759C29.4296 25.537 30.415 26.6681 31.1048 27.9791ZM23.6929 24.5698L26.4456 23.9133C26.3289 24.1725 26.1543 24.4006 25.9347 24.5806C25.7141 24.7605 25.4559 24.8869 25.1796 24.9501C24.9022 25.0143 24.6151 25.0133 24.3388 24.9469C24.0625 24.8805 23.8054 24.7519 23.5869 24.5698H23.6929ZM11.835 18.0906C11.4751 16.1002 11.835 15.105 13.3602 14.4909C14.8844 13.8768 16.2607 13.3687 17.5953 12.7335C18.3268 12.3463 19.0338 11.9149 19.7128 11.4418C20.6232 10.9336 21.5122 10.3831 22.4441 9.95958C22.9442 9.8272 23.4755 9.87207 23.9479 10.0866C20.2837 13.3317 16.1675 16.0277 11.7301 18.0906H11.835ZM-75.4883 149.373C-73.9668 148.554 -72.2611 148.139 -70.5334 148.166L-75.4036 149.796L-75.4883 149.373ZM-57.8287 161.019L-58.6545 158.901L-55.1184 157.546L-50.2695 160.659C-52.6957 161.536 -55.3301 161.661 -57.8287 161.019ZM-69.496 156.996L-68.056 158.351C-68.118 158.443 -68.1678 158.543 -68.2042 158.647L-71.571 158.139L-69.496 156.996ZM-73.7308 157.757L-74.9378 157.525V157.165L-73.7097 157.356C-73.7623 157.486 -73.8048 157.62 -73.8367 157.757H-73.7308ZM-30.4289 142.724C-29.9631 143.042 -29.4972 143.337 -28.989 143.634C-31.1065 145.435 -31.2759 145.752 -33.7533 142.873L-31.9535 141.729C-31.5088 142.11 -31.0217 142.427 -30.5347 142.724H-30.4289ZM-30.4289 140.988L-28.3115 139.674L-25.6011 141.453C-27.7397 143.359 -28.4808 143.274 -30.4289 140.988ZM-35.2779 143.803C-34.3674 144.249 -33.5203 144.841 -32.631 145.392C-33.7109 146.514 -33.7109 146.514 -36.3577 144.375C-35.8707 144.122 -35.4472 143.719 -35.2779 143.803ZM-52.8739 152.761C-49.3589 150.283 -49.3589 151.151 -47.2415 152.824L-50.693 154.518C-51.4763 153.904 -52.1751 153.353 -52.8739 152.761ZM-52.3446 154.878C-54.2079 156.361 -54.8643 156.339 -56.9818 154.625C-54.7796 152.973 -54.7796 152.973 -52.3446 154.92V154.878ZM-42.6889 150.474L-45.7805 152.104L-47.7496 150.537L-45.124 148.929L-42.6889 150.474ZM-43.303 148.357C-41.1855 146.959 -41.1855 146.959 -39.0681 148.886L-41.2915 149.945L-43.303 148.357ZM-44.3194 153.099C-42.6889 151.786 -41.969 151.532 -40.6562 151.638L-37.7765 149.859L-36.0402 150.771C-36.0402 150.156 -36.0402 149.754 -36.0402 149.288L-33.4568 148.166L-32.017 149.288C-35.5287 151.579 -39.2597 153.516 -43.1548 155.069L-44.3194 153.099ZM-39.6399 146.62C-37.5223 144.904 -37.3106 144.926 -35.4049 146.853C-36.6542 148.758 -38.1788 148.589 -39.6399 146.62ZM-39.5127 144.354C-41.0162 145.688 -41.0162 145.688 -42.6254 144.757L-46.1192 142.767C-46.1192 142.576 -46.1192 142.407 -46.1192 142.236L-44.0017 141.051L-39.5127 144.354ZM-42.9007 146.471L-44.7217 147.446L-49.3589 144.566L-46.9662 143.444C-46.2675 144.989 -44.2559 145.095 -42.9007 146.408V146.471ZM-46.2251 148.038L-49.3589 149.564L-53.1279 147.446L-51.0105 145.54L-46.2251 148.038ZM-51.9423 150.156C-55.1395 151.892 -54.2079 152.273 -57.5534 149.775C-55.2455 148.293 -53.5939 148.378 -51.9423 150.283V150.156ZM-56.4313 152.612L-58.5487 153.713L-61.1108 152.041C-59.8403 150.135 -58.718 150.283 -56.4313 152.655V152.612ZM-63.927 151.892L-59.9462 154.518C-60.9203 155.154 -61.5978 155.64 -62.2966 156.043C-62.4138 156.106 -62.5447 156.139 -62.6777 156.139C-62.8107 156.139 -62.9417 156.106 -63.0589 156.043C-64.7952 154.942 -66.4891 153.799 -68.2042 152.655C-68.2042 152.655 -68.3102 152.422 -68.4372 152.126L-65.3668 150.474L-63.927 151.892ZM-56.7911 156.762C-58.3581 156.762 -59.7556 158.457 -61.5554 156.974C-58.7604 155.175 -58.0829 155.005 -56.7911 156.805V156.762ZM-69.136 154.159C-70.0676 155.154 -70.1523 155.132 -71.7404 153.269C-71.5089 153.155 -71.2569 153.089 -70.9993 153.075C-70.7418 153.06 -70.4839 153.097 -70.2411 153.184C-69.9982 153.271 -69.7752 153.406 -69.5854 153.58C-69.3955 153.755 -69.2427 153.966 -69.136 154.2V154.159ZM-72.6509 154.9C-73.879 155.154 -73.879 155.154 -74.239 153.883L-72.6509 154.9ZM-64.4987 157.144L-66.2986 158.288C-67.1244 157.482 -67.8655 156.721 -68.6913 155.937C-66.9126 155.132 -66.1503 155.386 -64.4352 157.144H-64.4987ZM-59.7133 160.616L-62.593 160.341C-60.8143 158.754 -60.5815 158.754 -59.6497 160.616H-59.7133ZM-35.0237 160.616C-38.9447 161.558 -42.9842 161.907 -47.0086 161.654C-44.5947 161.019 -42.1384 160.49 -39.788 159.706C-38.9969 159.327 -38.1075 159.202 -37.2427 159.35C-36.3778 159.498 -35.5802 159.911 -34.9602 160.532L-35.0237 160.616ZM-28.6714 159.664L-29.5396 159.79C-29.5291 159.664 -29.5291 159.536 -29.5396 159.409H-28.6714C-28.6525 159.465 -28.6384 159.521 -28.6291 159.579L-28.6714 159.664ZM-35.3837 158.583C-35.1007 158.258 -34.7535 157.994 -34.3637 157.809C-33.974 157.624 -33.55 157.521 -33.1187 157.507C-32.6873 157.493 -32.2577 157.568 -31.8568 157.727C-31.4558 157.887 -31.0923 158.128 -30.7889 158.435C-32.271 159.473 -33.6898 160.15 -35.3414 158.499L-35.3837 158.583ZM-25.6222 159.283C-26.0246 159.409 -26.5963 158.838 -27.2527 158.478C-25.6646 157.334 -24.2883 156.551 -22.4249 157.948C-23.3217 158.682 -24.4242 159.119 -25.5799 159.198L-25.6222 159.283ZM-1.61024 144.46C-2.81734 146.324 -3.11403 146.43 -4.78598 145.582L-6.43865 144.629L-5.44255 143.656C-5.16728 143.38 -4.87167 143.126 -4.46894 142.787L-1.61024 144.46ZM-3.30468 141.813L-1.73769 140.31L-0.0432434 141.051L1.45948 141.813C-0.276733 143.931 -0.276741 143.931 -3.30468 141.813ZM2.64623 146.705C1.4177 148.166 0.824333 148.166 -1.22893 146.705C0.316643 145.223 0.676521 145.223 2.64623 146.684V146.705ZM-8.51323 144.714C-10.4401 146.556 -10.6306 146.556 -12.5575 145.329C-11.0118 143.423 -10.546 143.337 -8.51323 144.693V144.714ZM-7.70896 145.244L-4.70137 146.747C-6.16339 148.398 -6.6925 148.864 -9.36024 146.62L-7.70896 145.244ZM-3.1558 147.362L-1.80089 147.848L-0.509163 148.357C-2.62669 149.945 -2.62669 150.177 -4.74421 148.758L-3.1558 147.362ZM-7.64469 148.97C-9.99549 150.771 -9.99549 150.771 -12.007 149.182L-10.4613 147.509L-7.64469 148.97ZM-4.19367 150.474C-5.21013 150.94 -5.97274 151.321 -6.7557 151.597C-6.9892 151.597 -7.30623 151.448 -7.64469 151.342C-6.14197 149.711 -6.14197 149.711 -4.19367 150.516V150.474ZM-11.4353 151.109C-12.7905 152.676 -12.7905 152.676 -14.675 151.469C-13.3622 149.945 -13.0234 149.902 -11.4353 151.151V151.109ZM-18.2958 151.342C-20.2228 153.459 -20.5192 153.459 -23.6107 151.892L-20.4981 150.071L-18.2958 151.342ZM-16.1784 152.083L-14.2092 153.121C-15.7338 154.9 -16.0937 154.942 -18.5711 153.65L-16.1784 152.083ZM-22.5308 154.031C-24.0765 155.895 -25.834 155.195 -27.8033 154.56C-25.5587 152.549 -24.7964 152.57 -22.4037 154.074L-22.5308 154.031ZM-17.9995 155.365C-20.7944 157.8 -20.7098 157.482 -23.0178 156.106C-21.3027 155.111 -19.8416 153.713 -17.8724 155.407L-17.9995 155.365ZM-27.5915 156.233C-28.3326 157.482 -28.3326 157.482 -31.5723 156.424C-30.0054 155.26 -28.7561 155.81 -27.4645 156.276L-27.5915 156.233ZM-19.4605 158.499C-17.6818 157.271 -16.1149 156.064 -14.4421 155.089C-13.3328 154.6 -12.1763 154.224 -10.9906 153.968C-10.9906 153.799 -10.9906 153.333 -11.1177 152.845C-10.4613 152.422 -9.93198 151.597 -8.76729 152.189L-10.1225 153.396C-8.65504 153.378 -7.20983 153.038 -5.88812 152.401C-4.70672 151.816 -3.48997 151.307 -2.24538 150.876C-4.78598 154.094 -15.4796 159.706 -19.3334 158.541L-19.4605 158.499ZM7.02909 152.973C4.74876 153.966 2.37204 154.719 -0.0646667 155.217C1.58694 154.137 3.23854 153.099 4.93299 152.02C5.92802 151.511 6.30933 152.401 7.15548 153.015L7.02909 152.973ZM8.6175 151.956C6.93376 151.289 5.39569 150.305 4.08576 149.055C2.7512 149.584 3.74731 150.389 3.8105 150.96C-2.81734 156.064 -10.0801 159.43 -13.341 158.626C-13.1165 158.454 -12.8753 158.305 -12.6211 158.182C-8.00393 156.349 -3.71383 153.783 0.0831451 150.58C1.22705 149.648 2.79404 149.267 3.577 147.827C3.6584 147.699 3.77408 147.597 3.91118 147.532C4.04827 147.466 4.20037 147.442 4.35032 147.459C4.50134 147.477 4.6438 147.537 4.76162 147.631C4.87944 147.727 4.96834 147.853 5.01761 147.997C5.33465 149.394 6.43571 149.924 7.4104 150.643C7.93737 151.005 8.39043 151.465 8.74388 151.998L8.6175 151.956ZM15.5624 144.481C16.1761 143.888 16.4299 143.465 16.6635 143.465C17.9552 143.465 18.781 144.375 19.8392 145.286C17.9766 146.642 17.3618 144.524 15.6888 144.524L15.5624 144.481ZM23.6297 144.185C23.2067 145.075 22.7408 145.561 21.5122 145.117C22.3595 144.418 22.7825 143.931 23.7572 144.228L23.6297 144.185ZM26.0643 142.702L24.4984 143.465C25.1121 142.342 25.1121 142.342 26.1918 142.745L26.0643 142.702ZM29.2197 140.246C27.8016 141.772 27.8016 141.772 26.8055 140.734C27.6741 140.352 28.1401 139.273 29.3472 140.289L29.2197 140.246ZM32.6504 138.129C30.8081 139.654 30.8081 139.654 29.707 138.468C31.1048 136.943 31.1048 136.943 32.7768 138.235L32.6504 138.129ZM35.403 136.011C34.1959 137.303 34.1959 137.303 32.3751 136.223C33.8361 134.678 33.836 134.678 35.5294 136.054L35.403 136.011ZM38.7277 133.449C37.7316 135.122 37.3931 135.185 35.2756 134.043C36.4195 132.179 37.6898 133.555 38.854 133.492L38.7277 133.449ZM40.421 132.052L39.8287 132.857L37.4777 131.734C38.5156 131.622 39.5652 131.745 40.5485 132.094L40.421 132.052ZM42.5386 129.934C41.4375 131.099 40.9298 131.078 37.0761 129.702C37.3299 129.194 37.5623 128.728 37.7958 128.304L42.5386 129.934ZM45.6297 127.097C43.9577 129.088 43.7243 129.214 41.3947 128.113L39.8287 127.393C41.5435 127.14 42.877 128.516 44.3176 127.246C43.5336 126.145 42.2001 126.546 41.2051 125.996C40.1961 125.547 39.155 125.172 38.0915 124.874C37.7744 125.509 37.5409 125.954 37.3513 126.398H34.6833L36.3981 128.219C35.5937 129.596 33.8992 129.554 32.6075 130.549L34.7251 132.666C34.1531 133.577 33.4547 133.703 32.4811 133.068C31.7989 132.723 31.0909 132.433 30.3636 132.2C29.3043 134.318 32.1213 133.512 32.1213 134.974C31.7603 135.588 31.274 136.096 30.279 135.355C29.601 134.936 28.893 134.567 28.1615 134.254C27.5895 135.355 27.5895 135.355 29.5796 136.88C28.9659 138.426 28.2033 138.235 27.1868 137.515C26.1703 136.795 25.0693 136.181 24.1171 135.525C23.9982 135.696 23.9189 135.892 23.8836 136.098C23.8493 136.304 23.859 136.514 23.9136 136.715C23.9682 136.916 24.0657 137.104 24.1985 137.264C24.3324 137.424 24.4995 137.553 24.688 137.643C25.4292 138.15 26.2132 138.595 26.9961 139.061C26.0225 140.797 25.7473 140.881 24.2649 139.739C23.905 139.463 23.6297 139.039 23.227 138.87C22.835 138.805 22.4344 138.805 22.0413 138.87C22.0413 139.294 22.0413 139.823 22.2962 140.077C22.9635 140.674 23.6715 141.226 24.4127 141.729C24.0742 142.004 23.8204 142.258 23.5451 142.512L19.7546 139.611C19.5961 139.775 19.4793 139.974 19.4151 140.194C19.3508 140.412 19.3411 140.644 19.3872 140.868C19.4333 141.091 19.5329 141.3 19.6785 141.476C19.8242 141.652 20.0095 141.79 20.2205 141.877C20.8985 142.342 21.6397 142.745 22.5919 143.296L21.0045 144.693C19.5436 143.974 18.2936 143.233 18.3365 141.178C17.7013 141.538 16.9805 141.686 16.642 142.131C16.4728 142.455 16.235 142.739 15.9458 142.962C15.6555 143.184 15.3203 143.342 14.9647 143.422C14.608 143.502 14.2375 143.505 13.8808 143.427C13.523 143.351 13.1867 143.198 12.8943 142.978C13.1267 143.952 13.297 144.587 13.4234 145.095C15.255 145.498 16.9001 146.495 18.103 147.932C17.5524 148.504 17.0865 148.61 16.5574 148.081C15.5195 147.065 14.4399 146.091 13.4234 145.095H13.085C12.5976 144.969 12.0257 144.587 11.7504 145.329C11.4751 146.07 12.1103 146.112 12.5344 146.43C13.6141 147.255 14.6519 148.187 15.6041 149.033C15.2025 150.071 14.6734 150.05 13.9954 149.584C12.7037 148.674 11.4119 147.806 10.0988 146.959C9.60182 146.688 9.08556 146.454 8.55323 146.26C7.96092 147.594 8.8285 147.997 9.52792 148.378C10.6708 149.076 11.8779 149.711 13.5081 150.495L10.84 151.575C8.8692 150.423 7.22831 148.782 6.07583 146.811C7.57963 145.646 9.16803 144.503 10.6922 143.274C11.4987 142.619 12.2635 141.911 12.9789 141.157C13.508 140.585 13.4663 140.543 12.9789 139.399C12.6897 139.624 12.4145 139.864 12.1531 140.12C10.1277 142.368 7.75421 144.277 5.12364 145.773C4.85909 145.958 4.54526 146.057 4.22286 146.057C3.90154 146.057 3.58664 145.958 3.32316 145.773C2.60339 145.35 1.84078 145.01 1.0364 144.566C1.26883 144.065 1.63942 143.638 2.10427 143.339C2.56911 143.039 3.10894 142.877 3.66162 142.873C4.5624 143.07 5.42676 143.405 6.22471 143.868L6.43571 143.508L4.6363 141.813C4.95334 141.2 5.99121 140.67 5.0808 139.505L2.70943 141.178L-0.656975 139.442C0.824326 138.066 2.18031 136.774 3.577 135.482C3.79229 135.226 4.09005 135.053 4.41888 134.995C4.74876 134.937 5.08829 134.997 5.37749 135.165L8.46862 136.943C7.28294 138.193 6.22471 138.785 4.69949 137.918C4.41887 137.696 4.07291 137.575 3.71517 137.575C3.35743 137.575 3.0104 137.696 2.73085 137.918C3.94009 138.683 5.23289 139.308 6.58459 139.78C7.81205 140.056 8.70212 141.496 10.3537 140.818C9.86638 139.611 8.49004 140.014 7.89666 139.124C8.78673 138.341 9.59111 137.452 10.9246 138.426C11.4751 138.828 12.0053 138.679 12.4712 137.938L11.0521 136.943C12.3031 135.043 13.7201 133.258 15.2871 131.607C15.8376 131.205 16.5788 130.591 16.0497 129.489C15.647 129.68 15.1382 129.765 14.8844 130.083C13.3377 131.379 11.9764 132.883 10.84 134.55C10.0988 136.033 9.44331 136.181 8.02412 135.376C7.24009 134.953 6.49998 134.466 5.69452 133.958C7.1769 132.411 8.51147 131.099 9.76035 129.723C10.1631 129.257 10.84 128.558 9.63288 127.881C8.40543 129.194 7.19832 130.57 5.92802 131.841C3.64127 134.084 1.33309 136.308 -1.01793 138.468C-1.47635 138.789 -1.98404 139.032 -2.52065 139.188C-2.78413 139.734 -3.10332 140.253 -3.47391 140.734C-4.32114 141.559 -5.23154 142.322 -6.14197 143.062C-7.43369 144.143 -7.43369 144.143 -9.14848 142.851C-8.38106 142.344 -7.67147 141.754 -7.03096 141.094C-6.56504 140.5 -5.40078 139.971 -6.37439 138.701C-7.24303 139.527 -8.005 140.31 -8.83081 141.009C-9.65661 141.707 -9.86836 142.258 -10.8213 142.067C-10.9076 142.073 -10.9918 142.096 -11.0685 142.137C-11.1451 142.176 -11.2123 142.232 -11.2659 142.301C-11.4141 143.868 -13.0445 143.803 -13.6798 144.757L-15.9454 143.846C-15.2679 146.26 -12.8964 145.816 -11.7106 147.065C-12.0706 148.038 -13.1082 148.144 -13.828 148.674C-15.4024 147.93 -17.0483 147.349 -18.7405 146.937C-18.0206 148.441 -16.3478 148.547 -15.1833 149.542C-15.2642 149.756 -15.3917 149.949 -15.5564 150.108C-15.7212 150.266 -15.919 150.386 -16.1357 150.459C-16.3525 150.532 -16.5826 150.557 -16.8097 150.53C-17.0368 150.503 -17.2551 150.426 -17.4489 150.305C-18.0988 150.014 -18.7223 149.666 -19.3123 149.267C-19.7379 148.963 -20.2612 148.827 -20.7814 148.885C-21.3014 148.943 -21.7813 149.193 -22.1285 149.584C-22.4248 149.922 -22.7755 150.208 -23.166 150.431C-26.448 152.21 -29.6878 154.01 -33.0121 155.704C-36.4913 157.52 -40.2138 158.825 -44.0653 159.579C-44.2559 159.579 -44.4676 159.579 -44.637 159.579C-45.9075 159.918 -47.2626 160.744 -48.3849 160.51C-49.7064 159.96 -50.9239 159.185 -51.9846 158.223L-53.6997 156.974C-51.7305 155.726 -50.9893 155.726 -49.4648 156.974C-48.9354 157.377 -48.5119 157.885 -47.9826 158.245C-47.4533 158.605 -47.0933 158.711 -47.1144 157.885C-47.2529 157.574 -47.4308 157.282 -47.6438 157.016C-48.1731 156.466 -48.766 156.001 -49.5072 155.365L-46.0557 153.799L-44.0864 155.28C-45.0182 156.361 -46.7968 156.339 -47.1144 157.885C-43.1537 156.548 -39.3144 154.876 -35.6378 152.887C-33.3933 151.681 -31.1912 150.41 -29.0101 149.119C-28.457 148.712 -27.9398 148.259 -27.4645 147.763C-28.6291 147.213 -29.3066 147.912 -30.0054 148.251C-30.7042 148.589 -31.4877 148.483 -32.1228 147.509L-27.3374 144.757C-26.5327 144.757 -25.7494 146.451 -24.6906 144.863L-26.0669 143.677L-24.4576 142.385L-22.192 143.508L-23.3778 144.82C-22.9015 144.837 -22.4248 144.794 -21.959 144.693C-18.6396 143.148 -15.536 141.176 -12.727 138.828C-12.007 138.172 -11.1601 137.684 -10.3766 137.092C-10.1648 136.922 -9.9955 136.668 -9.63551 136.287C-10.0218 136.262 -10.4094 136.317 -10.7736 136.447C-11.138 136.579 -11.4713 136.784 -11.7529 137.049C-14.061 138.553 -16.3902 139.992 -18.6347 141.581C-19.212 142.032 -19.9239 142.277 -20.6568 142.277C-21.3898 142.277 -22.1017 142.032 -22.679 141.581C-21.2392 140.5 -19.8628 139.463 -18.4441 138.426C-17.0254 137.388 -15.6702 136.308 -14.2092 135.122C-13.5316 134.529 -13.5316 134.36 -13.6163 133.217C-14.6538 133.217 -15.2256 133.937 -15.9031 134.487C-18.2112 136.287 -20.4981 138.129 -22.8272 139.929C-23.3004 140.24 -23.7959 140.516 -24.3094 140.755L-26.8715 138.891C-25.073 136.714 -22.9352 134.841 -20.5404 133.343C-17.9571 131.941 -15.5954 130.164 -13.5316 128.071C-13.341 127.838 -13.0445 127.605 -12.981 127.309C-12.948 127.161 -12.95 127.008 -12.9867 126.86C-13.0234 126.713 -13.094 126.577 -13.1928 126.462C-13.3223 126.39 -13.468 126.351 -13.6163 126.351C-13.7645 126.351 -13.9104 126.39 -14.0398 126.462C-14.7729 127.294 -15.5505 128.085 -16.3689 128.833C-19.3546 131.163 -22.4037 133.408 -25.4741 135.63C-27.5915 137.197 -29.8572 138.658 -32.0593 140.183L-35.9131 137.218C-36.2519 139.59 -34.0497 139.611 -33.4356 140.818C-34.8756 141.941 -35.299 141.919 -36.5907 140.818C-37.3279 140.276 -38.0989 139.78 -38.8987 139.336C-39.0469 140.5 -39.0469 140.5 -36.7812 142.385C-37.0565 143.126 -37.6071 143.444 -38.2846 143.084C-39.6822 142.279 -40.995 141.369 -42.5196 140.395C-40.635 138.891 -38.9411 137.515 -37.2048 136.16C-35.0872 134.487 -32.9698 132.942 -30.8524 131.205C-29.9817 130.323 -29.208 129.35 -28.5443 128.304C-28.4796 128.154 -28.4463 127.991 -28.4463 127.827C-28.4463 127.663 -28.4796 127.502 -28.5443 127.352C-33.5755 132.08 -39.0336 136.334 -44.8487 140.056C-50.5571 143.92 -56.4816 147.455 -62.593 150.643L-63.9905 149.69C-62.8259 149.055 -61.8731 148.504 -60.7931 147.932C-59.7133 147.362 -59.1204 146.917 -58.3157 146.345C-57.5111 145.773 -56.3041 144.926 -55.3302 144.228C-54.8815 143.814 -54.4639 143.369 -54.0809 142.893L-54.3349 142.555C-54.6648 142.608 -54.9856 142.708 -55.2878 142.851C-57.8922 144.481 -60.3697 146.366 -63.1012 147.721C-66.5314 149.458 -70.1523 150.791 -73.6885 152.252C-74.1974 152.36 -74.7145 152.423 -75.2342 152.443C-76.547 152.739 -77.8387 153.078 -79.4691 153.459C-78.2622 155.195 -76.8647 154.222 -75.6154 154.349V155.661L-80.3796 156.699C-81.127 157.618 -81.9408 158.483 -82.8147 159.283C-84.2123 160.362 -85.7367 161.251 -87.219 162.226C-87.4307 162.374 -87.7483 162.458 -87.8543 162.649C-89.3788 165.105 -92.0892 164.894 -94.3336 165.126C-96.5495 165.179 -98.766 165.051 -100.961 164.745L-89.9082 163.708C-90.1411 162.458 -90.8187 162.586 -91.581 162.67C-94.6301 162.987 -97.7004 163.242 -100.75 163.559C-101.331 163.658 -101.904 163.799 -102.465 163.984C-102.126 164.343 -102.02 164.534 -101.851 164.597C-101.543 164.662 -101.232 164.704 -100.919 164.725C-101.733 164.67 -102.55 164.713 -103.354 164.851C-104.311 165.183 -105.233 165.608 -106.107 166.121C-107.161 166.96 -108.417 167.507 -109.749 167.71C-109.401 167.351 -109.033 167.012 -108.648 166.693C-106.678 165.296 -104.688 163.899 -102.676 162.458C-102.257 162.163 -101.768 161.981 -101.258 161.929C-99.4422 161.618 -97.5787 161.733 -95.8159 162.268C-94.5877 162.798 -93.5501 161.972 -92.4068 161.908C-92.3494 161.899 -92.2948 161.878 -92.2471 161.845C-92.1994 161.811 -92.1599 161.769 -92.1315 161.717C-91.581 159.727 -89.8023 158.754 -88.4895 157.482C-87.1594 156.072 -85.7452 154.742 -84.2546 153.502C-83.3523 152.891 -82.4036 152.354 -81.4172 151.892L-79.8079 152.782C-78.7479 152.472 -77.7254 152.045 -76.7587 151.511C-74.9104 150.577 -72.9339 149.92 -70.8934 149.564C-68.917 148.897 -66.98 148.12 -65.0916 147.234C-63.9107 146.57 -62.7849 145.813 -61.7249 144.969C-60.508 144.214 -59.3474 143.372 -58.2522 142.448C-56.1348 140.331 -54.0174 138.023 -51.8998 135.842C-52.3869 134.974 -52.8951 135.292 -53.2762 135.63C-54.716 136.859 -56.156 138.087 -57.5111 139.379C-58.8663 140.67 -59.925 141.75 -61.1108 142.957L-61.4708 142.682C-61.2414 142.285 -60.9868 141.902 -60.7085 141.538C-59.5862 140.352 -58.4216 139.188 -57.2994 138.023C-54.9958 135.39 -53.0389 132.472 -51.4763 129.342C-50.1254 127.017 -48.9025 124.621 -47.8131 122.163C-45.9922 118.056 -44.3829 113.842 -42.5408 109.735C-40.9103 106.113 -39.0893 102.576 -37.353 98.998C-36.3154 96.8816 -35.3625 94.7641 -34.2614 92.6465C-32.6522 89.5126 -31.1277 86.294 -29.2219 83.3506C-26.0034 78.4376 -22.3825 73.7795 -19.164 68.8675C-16.1996 64.3144 -12.8117 60.1436 -9.63551 55.6547C-6.45901 51.1647 -3.7706 47.1846 -0.975082 42.9496C0.507294 40.6414 1.75616 38.1854 3.04789 35.7712C4.14896 33.6537 5.16541 31.7054 6.20329 29.6521C6.56317 28.9109 6.85986 28.1269 7.19832 27.3225C7.98128 27.45 8.17193 27.873 7.87631 28.445L3.8737 35.9404L3.40778 36.8091L0.401253 42.7803C-0.656975 44.8979 -1.71626 47.0154 -2.79591 49.1329C-3.65599 50.8038 -4.62531 52.4168 -5.69746 53.9602C-7.41226 56.3959 -8.87321 59.0211 -10.4613 61.6259C-10.3101 61.7481 -10.1313 61.8327 -9.94034 61.8723C-9.74925 61.9109 -9.55164 61.9034 -9.3643 61.8487C-9.17708 61.7952 -9.0056 61.6966 -8.86475 61.5617C-8.72391 61.4267 -8.61787 61.2596 -8.55553 61.0754C-7.07381 58.4074 -4.74421 56.2052 -3.96018 53.1344C-3.90234 52.8752 -3.77809 52.6342 -3.6003 52.4361C-1.87371 50.6485 -0.443832 48.5974 0.633675 46.3588C1.72189 44.4801 2.70407 42.5436 3.577 40.5568C5.31322 36.9569 6.96482 33.357 8.68069 29.7581C8.68069 29.5461 9.01915 29.4186 9.54826 28.9323C8.57465 33.7179 5.77914 37.1904 4.21216 41.1919C2.64624 45.1945 0.867172 49.0686 -0.890465 53.1559C-0.552002 53.1559 -0.192131 53.1559 -0.00147247 53.007C0.797546 52.4254 1.44555 51.6596 1.88791 50.7759C2.33026 49.8912 2.55305 48.9144 2.5402 47.9258C2.49628 47.5755 2.5327 47.2199 2.64623 46.8868C2.75977 46.5527 2.94827 46.2495 3.19677 45.9989C5.08508 43.8107 6.45927 41.2283 7.21974 38.4392C7.6214 37.2321 8.49004 36.1311 8.21478 34.7333C8.19871 34.6712 8.19871 34.6059 8.21478 34.5437L10.8828 30.8378C11.0306 31.0916 11.3905 31.4098 11.3273 31.6208C11.1517 32.7861 10.7564 33.9075 10.1631 34.924C9.79034 35.4874 9.51828 36.1107 9.35762 36.7662C8.6175 38.8837 7.81205 41.0013 6.88021 42.9281C4.53776 48.1518 2.0957 53.339 -0.445969 58.492C-1.65307 60.8848 -3.07119 63.1501 -4.40575 65.4797L-8.93674 73.5042C-7.68111 73.0083 -6.63895 72.0861 -5.99309 70.9004C-3.63029 67.2962 -1.50848 63.54 0.358414 59.6562C2.03144 55.8239 4.12754 52.1608 6.01264 48.4121C6.39394 47.6505 6.62637 46.8247 6.98624 46.0621C7.34613 45.2995 7.64281 44.8336 7.98128 44.1984C9.97241 45.1088 10.5015 47.0571 11.8779 48.4335C11.6872 49.1329 11.4751 49.8527 11.1999 50.7845L7.51643 47.4813L7.19832 47.6719C7.26365 48.0436 7.39326 48.4013 7.57962 48.7302C8.13016 49.3653 8.8285 49.8944 9.37904 50.5296C10.7982 52.1608 10.8196 52.6471 9.6543 54.6586C8.2362 53.6421 8.2362 53.6421 8.36259 51.8641L5.69452 51.9488C7.07086 53.1559 6.37251 54.2355 5.69452 55.3998C5.20825 56.247 4.86872 57.1574 4.33961 58.3013C6.20329 57.6233 6.94447 58.9997 7.83347 59.9529C9.273 61.4771 10.6076 63.1073 11.9207 64.7385C12.3513 65.379 12.7337 66.0517 13.0636 66.75C13.4234 67.3637 13.0636 67.6818 12.5976 68.211L5.48352 60.9265L5.18684 61.0754C5.18684 61.265 5.18683 61.5617 5.29287 61.6677C6.85986 62.9809 6.6692 64.4632 5.58849 66.1566L4.08576 64.8863C3.72588 66.0088 4.80553 66.2841 5.0808 67.1945L4.38245 68.8032C4.12753 69.3334 3.89511 69.8625 3.64127 70.4131L2.26493 70.0746C3.72588 72.4031 2.26493 73.9701 1.31168 75.8124L-0.467392 74.2454C-0.251038 75.4214 0.300575 76.5097 1.12102 77.3794C2.53163 79.4284 4.05791 81.3938 5.69452 83.266C6.10046 83.6313 6.34789 84.14 6.38751 84.6841C6.42715 85.2293 6.2547 85.767 5.9066 86.1879L5.29287 87.1412C2.87116 84.8801 0.633682 82.4306 -1.39816 79.8139L-2.7745 82.9265L-1.20751 81.8254C-1.07256 81.8618 -0.944023 81.9186 -0.827271 81.9957L3.85226 88.4961C4.42422 89.2791 4.08577 89.8296 3.21712 90.4647L-2.45746 83.9429L-2.79591 84.1979C-1.18929 87.0501 0.570488 89.8146 2.47594 92.4762L1.52374 93.5141L-4.46894 87.1615C-4.32114 88.9406 -2.90195 89.8724 -2.07615 91.1642C-1.25035 92.4559 -0.106438 93.768 0.867172 95.0179C-8.3862 110.454 -18.7828 124.874 -32.631 136.605C-32.1204 136.443 -31.6302 136.222 -31.17 135.948C-29.7005 134.901 -28.2869 133.777 -26.935 132.582C-24.5211 130.464 -22.1073 128.135 -19.9051 125.72C-17.3642 122.926 -15.0138 119.961 -12.6422 116.996C-10.2708 114.033 -8.19566 111.513 -6.16232 108.527C-4.13049 105.541 -1.92834 101.963 0.189178 98.681C1.37486 96.8602 2.64623 95.1025 3.72588 93.2388C4.80553 91.3752 5.44068 89.8724 6.2879 88.1994C7.49501 85.722 8.8285 83.3292 9.88779 80.7886C10.946 78.2469 11.5394 75.9602 12.3652 73.5471C13.6141 69.9472 14.9904 66.4105 16.0915 62.7688C17.4261 58.3859 18.6321 53.9388 19.6914 49.4714C20.2965 46.6769 20.7346 43.8482 21.0045 41.0013C21.2584 38.7359 21.2155 36.4278 21.343 33.7383L22.5501 34.8608C22.4441 34.0135 22.3595 33.4212 22.2534 32.7432L24.0957 32.1713C24.3077 34.2888 24.5402 36.0893 24.6462 37.9733C24.5519 41.1812 24.1899 44.3752 23.5665 47.5231C23.1424 50.9752 22.4012 54.363 21.8303 57.814C21.8303 58.4074 21.3848 59.0629 22.0842 59.6777C22.8939 58.4684 23.3952 57.0803 23.5451 55.6333C24.1171 51.8009 24.4341 47.9472 25.1539 44.1567C25.6402 40.7988 25.8105 37.4035 25.6627 34.0135C25.7012 33.3795 25.7933 32.7486 25.9379 32.1295C26.9115 32.1295 26.8269 32.6801 26.8269 33.1674C26.8269 34.6069 26.8269 36.0465 26.8269 37.4014C26.8365 38.1126 26.9083 38.8205 27.039 39.5189C27.4117 41.0795 27.3528 42.7118 26.8698 44.2413C26.5795 45.3895 26.451 46.5719 26.4884 47.7566C26.361 50.234 26.2978 52.7317 26.1703 55.2305C26.1703 55.9932 26.1703 56.925 24.8369 56.7343C25.1667 57.2388 25.4238 57.7872 25.5995 58.3645C25.5673 58.8829 25.4463 59.3917 25.2385 59.8683C23.8836 64.3144 22.6765 68.8247 21.0045 73.2075C20.0513 75.8756 19.4161 78.6079 18.5903 81.2749C17.5953 84.4517 16.0915 87.4796 14.8212 90.5708C14.5673 91.2059 14.2706 91.8411 13.8893 92.6883C14.3028 92.5533 14.6777 92.3209 14.984 92.0125C15.2892 91.7029 15.5163 91.3248 15.647 90.9103C17.7013 87.0223 19.3336 82.9265 20.5172 78.6925C21.1352 76.4893 21.885 74.3257 22.7611 72.2125C23.1638 71.1114 23.6083 70.095 24.0528 68.8461C24.4341 68.9928 24.8015 69.1696 25.1539 69.3752C27.2714 70.7301 29.5796 72.1493 31.8031 73.6103C32.9042 74.2882 32.9256 74.2668 32.3751 75.9398C29.6663 74.7145 27.0486 73.2996 24.5402 71.7048C24.9215 72.9119 24.9001 72.9119 27.8862 75.008C29.1137 75.8552 30.4054 76.6596 31.7399 77.5272L31.4647 79.4337C28.4153 78.6283 26.4038 75.9816 23.2067 75.7492C25.5566 77.358 27.8434 79.0096 30.2362 80.5551C30.4568 80.6451 30.6528 80.7865 30.8081 80.9675C30.9634 81.1485 31.0737 81.3638 31.1294 81.5951C31.1851 81.8265 31.1851 82.0686 31.1294 82.2999C31.0737 82.5313 30.9634 82.7466 30.8081 82.9265L25.8319 80.4073C26.3835 81.6187 27.3025 82.6255 28.4571 83.2874C28.7752 83.5199 29.1779 83.6259 29.5164 83.838C30.5746 84.5363 30.5746 84.5792 29.8977 86.2094C28.2461 85.2143 26.5945 84.2611 24.9 83.266C24.9 84.3885 25.6412 85.0654 29.4104 87.8609C29.4382 88.0923 29.4382 88.3269 29.4104 88.5593C29.284 88.7735 29.1426 88.9792 28.9873 89.173C27.356 88.6868 26.5099 87.0566 24.4984 86.6956C25.3477 87.9209 26.3749 89.0134 27.5467 89.9356C28.5631 90.7197 28.5417 90.74 27.8648 92.3713L22.9732 89.1944C23.1852 89.8296 23.2067 90.2323 23.4177 90.423C24.4984 91.3548 25.5352 92.2438 26.7423 93.1328C27.3989 93.663 27.7373 94.1921 26.8698 94.9751L24.5187 93.302L24.1374 93.7048L26.3824 96.4789C26.3824 96.9662 26.255 97.4525 26.15 98.109L28.5631 97.4525C28.2547 96.4306 28.2268 95.3446 28.4839 94.3088C28.7409 93.272 29.2733 92.3252 30.0241 91.5658C30.0241 91.3966 30.3422 91.2274 30.3208 91.0795C29.8763 88.5593 31.4647 86.4632 31.8031 84.1133C32.1416 81.7622 32.6075 80.0046 33.052 77.9513C33.1334 77.4297 33.2898 76.9231 33.5179 76.4475C34.5505 74.0676 35.2617 71.5613 35.6355 68.9939C36.1453 66.8421 36.5416 64.6657 36.8212 62.4721C37.1093 59.6584 37.2367 56.8307 37.2025 54.0031C37.2025 49.768 36.9486 45.3841 36.7579 41.0645C36.7579 39.6463 36.4827 38.2486 36.3135 36.8305C37.3717 36.8305 37.4777 37.5288 37.5623 38.0579C38.099 42.2084 38.6141 46.3588 39.1079 50.5092C39.0983 50.7063 39.0983 50.9045 39.1079 51.1015C39.5053 54.0695 39.6606 57.0653 39.5738 60.059C39.5449 60.4585 39.6124 60.8601 39.7709 61.2286C39.9294 61.597 40.1736 61.9216 40.4842 62.1765C41.0326 60.7455 41.1719 59.1914 40.887 57.6865C40.6749 53.8756 40.421 50.0851 40.1672 46.2956C40.1672 45.9775 40.1672 45.6594 40.1672 45.1731H42.5171C42.756 47.9868 43.3676 50.7577 44.338 53.4097H44.7407C44.7407 52.118 44.8467 50.8048 44.9099 49.1747C46.1524 52.0023 46.8357 55.0442 46.9214 58.1321C45.694 59.5084 44.4226 57.4113 42.9831 58.1321C44.1687 59.487 45.8418 58.9783 47.2181 59.6562C47.7901 63.5314 48.3824 67.4697 48.9758 71.5356L46.8582 71.7262L46.7308 72.0861L48.5098 72.7844C48.5098 73.8009 48.5098 74.902 48.5098 76.0876H46.1599C46.3291 77.6964 47.7686 76.9349 48.2774 77.6761C48.1071 78.2898 47.9593 78.9678 47.7472 79.6876C49.3356 79.92 48.8483 78.3744 49.5895 77.9085L54.5025 78.2052C54.3333 79.3277 54.1844 80.3227 53.9938 81.6358L48.8279 80.8732C49.4631 82.0589 50.3939 81.9529 51.1351 82.1007C51.8762 82.2496 52.8081 82.3556 53.8674 82.5248C53.6339 83.5413 53.4432 84.4089 53.1894 85.4467L50.246 85.0023C50.7752 86.3357 51.9823 85.8495 52.5757 86.4632C52.9773 87.9027 52.0883 88.9192 51.2625 90.1049L49.823 89.8939C49.7716 89.9806 49.7287 90.0727 49.6955 90.1691L51.2839 91.3548L49.6109 96.9865L46.2649 96.225C47.0275 97.1986 48.3824 97.8338 51.6438 98.8084C51.2775 102.003 50.3071 105.1 48.7851 107.934C47.0832 111.552 44.9506 114.951 42.4325 118.056C41.4354 119.54 40.5774 121.114 39.8705 122.757C41.988 123.964 44.9731 123.646 46.9857 125.636C46.5198 126.186 46.0742 126.652 45.6725 127.161L45.6297 127.097ZM13.5509 64.2083L6.35109 57.2634C6.7324 56.4376 7.1137 55.5904 7.53678 54.7229C9.37904 55.5487 9.16804 56.8404 8.65927 58.6184L10.2048 57.708L14.6305 62.9166C14.6305 63.2133 14.3553 63.7638 14.1432 64.3358C13.9397 64.3304 13.7383 64.2876 13.5509 64.2083ZM10.6708 56.3316C11.0735 55.3794 11.3905 54.5954 11.7301 53.8124C12.7529 54.5568 13.4984 55.6226 13.8476 56.8404C13.9504 57.0739 14.1025 57.2827 14.2921 57.4541C14.6734 57.8568 15.3503 58.1953 15.4135 58.6184C15.4017 59.4527 15.2657 60.2807 15.0118 61.0754L10.6708 56.3316ZM15.3289 52.7317C16.9805 53.9388 17.0019 54.0031 16.3453 55.9717C14.5673 55.1674 14.5031 54.9981 15.3289 52.7317ZM13.7415 53.3251C12.2806 52.2026 12.2806 52.2026 13.085 50.0433C14.863 50.9537 13.8047 52.1608 13.7415 53.3251ZM16.2821 47.7769C16.6292 47.9858 16.9323 48.261 17.1733 48.5877C17.4132 48.9144 17.5867 49.285 17.6831 49.6791C17.7795 50.0722 17.7977 50.4814 17.7345 50.882C17.6724 51.2826 17.531 51.666 17.32 52.0119C16.9248 51.8524 16.5745 51.6007 16.2961 51.2793C16.0176 50.9569 15.8194 50.5735 15.7188 50.16C15.617 49.7466 15.6149 49.315 15.7134 48.9005C15.8109 48.487 16.0058 48.1014 16.2821 47.7769ZM14.8212 48.8994C13.2542 48.773 13.6355 47.2906 12.7037 46.7819C11.97 46.2753 11.2631 45.7311 10.5861 45.1517L12.0257 43.0342C13.2756 43.8386 12.5762 45.1517 13.0218 46.0835L14.0372 45.427C15.7948 46.3802 14.6091 47.6923 14.8844 48.8994H14.8212ZM10.3741 42.8435C10.177 43.2955 9.95099 43.7336 9.69714 44.1567C9.31584 43.5215 8.78673 43.0127 8.89276 42.7161C9.3544 40.8545 10.1749 39.1001 11.3059 37.5502C11.4334 38.1854 11.6658 38.5871 11.5394 38.8205C11.0446 40.123 10.6761 41.4704 10.4383 42.8435H10.3741ZM13.0004 39.837C13.7833 40.7688 13.3174 41.2348 12.7251 41.7007C12.8729 41.1705 12.9361 40.6414 13.0636 39.837H13.0004ZM16.7266 44.4105C18.6321 45.7236 18.6321 45.7236 18.209 47.2906C17.0448 46.528 16.1343 45.8297 16.7266 44.4105ZM15.2239 44.4105C14.5031 43.4369 15.0118 42.8435 15.2239 41.8485C15.9437 42.971 15.4778 43.5001 15.2239 44.4105ZM18.0184 39.3282C19.9667 40.3029 19.098 41.7853 18.992 43.1402C17.0448 42.293 17.0019 42.0606 18.0184 39.3497V39.3282ZM15.9008 40.8106C14.8212 39.4557 15.9008 38.4392 15.9008 37.1475C16.7695 38.4821 16.7695 38.5667 15.8591 40.832L15.9008 40.8106ZM13.7833 38.6931C13.1064 37.1261 14.1432 36.4063 14.186 35.4113L14.8426 35.602C14.4613 36.597 14.1646 37.5288 13.7201 38.7777L13.7833 38.6931ZM11.9839 36.7876C11.7718 36.3646 11.6658 36.2371 11.6872 36.1525C11.9625 35.4113 12.2592 34.6701 12.6822 33.5905C13.1064 35.1575 12.3009 35.814 11.9207 36.8723L11.9839 36.7876ZM19.2887 35.0728C19.2887 35.7926 19.2887 36.5124 19.2887 37.4228C18.3997 36.5552 18.3997 36.5552 19.2255 35.1575L19.2887 35.0728ZM16.4728 35.6448C16.6206 34.6487 16.7481 33.8025 16.8755 32.7861C17.7431 34.4795 17.7013 34.7547 16.4096 35.7294L16.4728 35.6448ZM15.2657 33.7383H14.758C14.758 33.0614 14.9487 32.3834 15.075 31.6208C15.9223 32.4466 15.0965 33.1245 15.2025 33.8229L15.2657 33.7383ZM5.22861 72.8476C4.97904 72.6302 4.80767 72.3346 4.74233 72.009C4.67699 71.6834 4.72198 71.346 4.86873 71.0482C5.18684 70.3285 5.41926 69.5873 5.88518 68.317C7.02909 69.7779 8.0027 70.879 8.76531 71.9801C9.21945 72.5788 9.64359 73.2011 10.0356 73.8427C10.7554 75.008 10.0356 75.9602 9.40045 77.1041L5.22861 72.8476ZM8.76531 79.5601C8.4472 80.5348 8.13017 81.487 7.70602 82.8215L1.54517 76.469C2.18031 75.8124 2.64623 75.3679 3.06931 74.8805C3.49239 74.3932 3.81049 73.9701 4.23357 73.441C6.05762 75.2287 7.58713 77.2948 8.76531 79.5601ZM10.057 71.2389C9.54827 70.8147 9.12519 70.3285 8.6175 69.9257C6.88021 68.5494 5.9066 67.0456 7.81205 64.8017L11.4334 69.0367C12.196 69.9472 11.7504 70.8576 11.3273 72.0015C10.8614 71.7466 10.4169 71.5142 10.057 71.2389ZM53.0416 50.4246C55.5393 50.4246 55.7942 50.6999 56.5354 54.0234L48.0439 53.5158C47.8747 52.3301 47.684 51.2504 47.5362 50.2125C47.9357 49.9844 48.3802 49.8441 48.8387 49.8012C49.2971 49.7573 49.7598 49.8109 50.1957 49.9598C50.6316 50.1076 51.0312 50.3464 51.3685 50.6603C51.7059 50.973 51.9726 51.3554 52.1515 51.7795L53.0416 50.4246ZM56.8739 50.8895L58.187 50.6356L59.965 54.2569H57.8475C57.4662 52.8806 57.1909 51.9905 56.8739 50.8895ZM61.1089 52.7317C60.2189 51.8427 60.3463 51.2076 61.1089 50.6142C61.3842 51.44 61.3842 51.44 61.0243 52.7317H61.1089ZM64.6232 51.9905C65.0891 54.108 65.0891 54.1081 63.6495 54.1081C63.3743 53.2619 62.8666 52.3086 64.5385 51.9905H64.6232ZM56.514 59.3596L48.6791 58.8304C48.5527 57.3266 48.4038 55.9932 48.256 54.363L57.2123 54.9135C57.509 55.6483 57.6001 56.4505 57.478 57.2335C57.3548 58.0164 57.0217 58.7512 56.514 59.3596ZM61.0875 57.5173C61.0875 58.1107 61.0875 58.6826 61.0875 59.3596C60.6923 59.381 60.2971 59.381 59.9018 59.3596C58.187 59.2117 58.1442 59.1057 58.292 57.242C58.337 56.5373 58.337 55.8303 58.292 55.1245C60.7491 55.2305 60.8969 55.3794 61.0029 57.5173H61.0875ZM56.514 64.2512C56.0481 64.2512 55.5822 63.5528 55.0102 63.0655C54.6086 63.9331 53.7185 63.9759 52.7235 63.7853C51.7284 63.5946 50.4153 63.4254 49.1664 63.2347C48.9758 62.1765 48.7851 61.1172 48.573 60.1222C50.0094 59.7376 51.5206 59.7376 52.957 60.1222C54.3119 60.1222 55.6668 60.5035 57.0431 60.6941L57.7843 62.5567H58.187C58.3348 61.943 58.4827 61.3507 58.6101 60.8002C58.7419 60.7209 58.8843 60.6641 59.0332 60.6299C61.8073 60.8848 61.9133 61.0754 61.1507 64.505C59.5634 64.505 59.5634 64.505 58.7161 63.5528C58.0232 63.8999 57.2798 64.1355 56.514 64.2512ZM58.1013 68.5922L55.2641 68.7186C55.4344 67.5758 55.5822 66.4747 55.7728 65.183L58.1013 65.5215V68.5922ZM59.7958 65.8182L61.3414 66.3258C61.3414 67.2159 61.3414 68.0417 61.3414 69.0582L59.4573 68.9307C59.4145 67.8511 59.5634 66.856 59.7112 65.8182H59.7958ZM51.1993 68.1049C50.2675 67.9357 49.6323 67.5544 49.7169 66.4319C49.6548 65.7175 49.5338 65.0095 49.3571 64.3144L54.1426 65.0138C54.2133 65.2269 54.2626 65.4465 54.2905 65.6693C54.0784 68.422 53.8245 68.634 51.1147 68.1049H51.1993ZM56.0898 69.7565C57.6783 70.095 59.3085 70.2439 61.0243 70.4977C61.0243 71.768 60.8754 72.6152 60.8123 73.7163L55.7728 72.5092C53.8524 72.8787 51.8655 72.6795 50.0554 71.9372C50.0554 70.9004 50.0554 69.8197 50.0554 68.9725C52.6389 68.8247 53.3372 69.1428 53.8877 70.773C54.1094 70.4249 54.4286 70.1496 54.8046 69.9804C55.1805 69.8111 55.5982 69.7554 56.0052 69.8197L56.0898 69.7565ZM57.5508 76.9563C57.4405 77.0023 57.3216 77.0259 57.2016 77.0259C57.0817 77.0259 56.9628 77.0023 56.8525 76.9563C56.7518 76.8931 56.665 76.8106 56.5997 76.711C56.5344 76.6125 56.4904 76.5011 56.4712 76.3843C56.4712 75.6217 56.4712 74.8591 56.62 74.0976L57.086 73.7795C57.4458 74.0762 58.1013 74.3729 58.1013 74.6685C58.0114 75.46 57.7971 76.2312 57.4662 76.9563H57.5508ZM59.9232 75.0498C60.7491 76.2997 60.7491 76.4261 59.6051 77.2948C59.6266 76.5953 59.7326 75.8756 59.8386 75.0498H59.9232ZM54.8838 77.1673L49.8647 76.7014C49.8647 75.4943 49.9708 74.4575 50.034 73.229L55.3487 74.013C55.1163 74.9234 54.9684 75.9184 54.7981 77.1459L54.8838 77.1673ZM57.1909 80.9793C57.1909 81.6144 56.7893 82.1007 55.8146 81.593C56.0481 80.5765 56.3019 79.4755 56.5772 78.3326C57.8903 79.137 57.1706 80.1321 57.1063 80.9579L57.1909 80.9793ZM59.3084 79.4969C60.6216 80.0688 59.7326 81.1485 60.0711 82.1435C58.5041 81.6776 58.5041 81.6776 59.1606 79.4755L59.3084 79.4969ZM59.754 83.7319C59.4573 84.6209 59.1178 85.616 58.7376 86.6956L54.7564 85.828C54.9052 85.149 55.0895 84.4774 55.3069 83.8166C55.4344 83.4781 55.7942 82.9908 55.9849 83.0325C56.3694 83.1675 56.7079 83.4096 56.9585 83.7319C57.1277 83.9012 57.1492 84.1764 57.2755 84.4935C58.0167 84.3457 58.2288 82.7155 59.6051 83.7105L59.754 83.7319ZM56.3233 87.6071C55.8574 88.7285 55.4129 89.851 54.9256 91.0581L53.2322 90.8043C52.8509 87.183 53.4218 86.5692 56.1745 87.5857L56.3233 87.6071ZM54.9042 96.0761L56.514 96.7541C56.1113 97.7492 55.9206 98.7442 54.2905 98.2783C54.3965 97.5585 54.5229 96.9233 54.7564 96.0558L54.9042 96.0761ZM51.707 97.6217C51.601 97.5274 51.5163 97.4096 51.4617 97.2768C51.406 97.1451 51.3814 97.0026 51.39 96.8602C51.39 95.7377 51.9405 95.5042 53.5075 95.9497C53.2419 96.5003 52.9377 97.0304 52.596 97.5371C52.4525 97.656 52.2747 97.7256 52.0883 97.7363C51.9019 97.7481 51.7166 97.7009 51.5592 97.6013L51.707 97.6217ZM49.145 123.032C48.573 124.133 48.2131 124.493 47.2813 123.984C45.9114 123.243 44.4965 122.585 43.0463 122.016C42.3908 121.74 42.4957 121.444 42.7292 121.062L49.145 123.032ZM50.924 120.639C49.8862 122.122 49.2082 122.163 47.2181 120.893C48.256 119.305 48.8483 119.263 50.924 120.639ZM51.7284 116.912L53.0416 117.336C53.0416 117.336 53.0416 117.336 53.38 117.59L52.3207 119.135L49.251 118.331C50.2889 116.404 50.2889 116.404 51.7284 116.891V116.912ZM56.1959 114.287L54.3965 116.404L51.4103 115.197C52.4696 112.889 53.0202 112.783 56.1959 114.287ZM58.1656 111.28L56.7893 113.016L53.5707 111.872L54.6718 109.946C55.9453 110.004 57.1684 110.464 58.1656 111.259V111.28ZM60.2831 107.342L58.97 109.819L57.1063 109.289C56.62 109.12 56.1327 108.887 55.6668 108.697C56.9157 105.944 57.3398 105.817 60.3892 107.32L60.2831 107.342ZM62.21 103.996L61.2996 105.944L59.5205 105.457L58.081 104.991C58.7579 103.042 59.7958 102.789 62.316 103.974L62.21 103.996ZM64.1369 99.7606C63.6709 100.714 63.3325 101.434 62.8869 102.301L59.7744 101.581L61.0661 98.9777L64.1369 99.7606ZM65.3226 96.9233L64.3275 98.7656C63.9677 97.5167 64.6874 97.1986 64.9198 96.6481L65.3226 96.9233ZM67.7153 90.9949L64.5182 90.5076C63.8177 90.3758 63.1108 90.2837 62.4007 90.2323C61.8512 90.273 61.3146 90.409 60.8123 90.635C60.8123 90.635 60.8123 91.2488 60.8123 91.312C61.4056 91.6718 62.2518 92.3284 62.6331 92.1378C64.1786 91.3548 65.5132 92.1378 66.8681 92.3498C66.6357 94.1278 66.6357 94.1278 65.6396 95.1443C64.7506 94.4459 65.6396 93.3877 65.0891 92.6037C63.7341 92.4345 64.0726 93.8954 63.3111 94.4888H61.1936C60.643 94.4888 59.9864 94.4888 60.1342 95.2932C60.2296 95.5117 60.371 95.7077 60.5509 95.8651C60.7298 96.0226 60.9429 96.1382 61.1721 96.2036C61.8126 96.2786 62.4585 96.2786 63.099 96.2036C62.9715 97.8552 62.9298 97.8766 61.7655 97.7074L58.292 97.3464C58.292 98.575 58.292 98.575 59.3084 99.464C59.1392 99.8881 59.0546 100.523 58.7161 100.799C58.2599 101.101 57.8914 101.518 57.6504 102.01C57.4084 102.5 57.3013 103.048 57.3398 103.593C57.3398 103.974 56.5558 104.503 56.0481 104.8C55.5972 104.946 55.1237 105.01 54.6503 104.991C53.952 106.198 55.1163 106.219 55.519 106.748L54.6503 108.168L52.2789 107.786C52.0262 107.813 51.7777 107.871 51.5378 107.955C51.5378 108.485 51.5378 109.014 51.6652 109.628L53.5493 109.416C53.5118 109.833 53.3875 110.237 53.183 110.602C52.9784 110.967 52.6999 111.284 52.3636 111.534C51.6224 111.343 50.6691 110.475 50.034 111.534C49.3988 112.592 50.6059 112.783 51.2839 113.355C50.6691 114.328 50.0554 114.9 48.9543 114.625C48.7048 114.562 48.4424 114.562 48.1917 114.625C48.0289 114.649 47.8768 114.717 47.7504 114.822C47.6241 114.927 47.5287 115.065 47.4762 115.221C47.4238 115.377 47.4152 115.544 47.4516 115.704C47.488 115.864 47.5684 116.011 47.684 116.129C47.7676 116.261 47.895 116.358 48.0439 116.404C48.3406 116.531 48.6576 116.616 48.9972 116.743C48.7219 117.844 48.1499 118.182 47.0275 117.78C45.905 117.378 45.7143 117.421 45.4819 118.882L47.1549 119.389C46.117 121.656 44.6561 119.771 43.0677 120.046C43.2958 119.457 43.5647 118.884 43.8721 118.331C45.1852 116.467 46.689 114.71 47.8115 112.741C49.3785 110.01 50.6906 107.171 52.0455 104.271C52.2201 103.645 52.3475 103.009 52.4268 102.366C52.671 101.557 52.9827 100.771 53.3586 100.014C53.6767 99.3793 54.2058 99.5282 54.7778 100.014C54.7778 101.497 53.6553 102.556 53.1048 103.974L54.3965 104.165C55.3969 102.999 56.1852 101.666 56.725 100.227C57.026 98.8331 57.2027 97.416 57.2552 95.9915L54.2272 94.3185L52.1097 94.8272C52.3422 93.663 52.5114 92.879 52.7449 91.7993L59.0975 93.9168C59.0975 92.5405 59.0975 92.5405 56.3019 91.312L57.1492 87.9027C58.1228 87.7121 58.4409 88.1576 58.292 89.0681C58.1442 89.9785 57.6151 90.7829 58.292 91.7147C59.7744 91.2906 59.2881 89.851 59.6898 89.0681C62.602 88.5325 65.5743 88.4104 68.5197 88.7082C68.223 89.4065 67.9906 90.1691 67.7153 90.9949ZM69.2181 84.9594C69.0703 85.8698 68.9642 86.6538 68.8164 87.5857L67.1006 87.0769C67.228 86.3154 67.3126 85.616 67.4615 84.727L69.2181 84.9594ZM69.5362 83.6045L67.8214 83.4567C68.1384 81.6776 68.1384 81.6776 69.9389 81.6358L69.5362 83.6045ZM65.555 83.1171C65.2797 83.1171 64.7934 82.6512 64.8352 82.4402C64.8352 81.5298 65.6396 81.6562 66.5297 81.8051C66.5297 82.6309 66.4868 83.266 65.5132 83.1171H65.555ZM63.4375 82.7573L61.3199 83.6677L63.1622 86.0819C64.4539 86.3357 64.094 83.9644 65.8302 84.6423C65.7242 85.2989 65.6192 86.0187 65.5132 86.7599L60.2831 87.0769C60.2831 86.8231 60.1139 86.5907 60.2831 86.4632C61.6027 83.0465 62.1597 79.3823 61.9133 75.7278C61.8812 75.1419 61.8812 74.556 61.9133 73.9701C62.2946 71.0482 62.6963 68.1263 63.1204 65.2248C63.1772 64.7257 63.3518 64.2469 63.6281 63.8281C63.6281 66.1148 64.7088 68.2527 63.8188 70.6455C63.5531 71.8944 63.6035 73.1904 63.9677 74.4146C64.1101 74.8045 64.169 75.2201 64.1401 75.6346C64.1112 76.048 63.9944 76.4518 63.7984 76.8181C63.6024 77.1834 63.3314 77.5036 63.0026 77.7575C62.6738 78.0113 62.2957 78.1923 61.8919 78.2898C62.4853 78.6497 62.9298 78.7771 63.1204 79.0727C63.3111 79.3694 63.4803 80.0892 63.3111 80.2381C62.3364 81.0639 62.527 81.9111 63.3111 82.7573H63.4375ZM67.4818 70.2224C67.9478 72.9751 67.8632 73.1025 65.7671 72.9965C65.4286 70.879 65.4286 70.879 67.3555 70.2224H67.4818ZM70.3191 80.1535L64.9841 80.4073C64.9841 79.6233 65.1105 79.137 65.1737 78.2898L70.4038 77.3579C70.3192 78.4173 70.256 79.2002 70.1927 80.1535H70.3191ZM65.6824 76.9135C64.9413 74.7959 65.1105 74.6267 67.5665 74.4575V76.3843L65.6824 76.9135ZM70.8697 76.2997H68.7522C69.2384 74.3772 69.368 72.3817 69.1335 70.4131C69.1335 69.3538 69.1335 69.3538 70.785 69.1846C70.7004 71.5559 70.7219 73.8641 70.7433 76.2997H70.8697ZM65.6824 69.3752C65.5346 68.4434 65.4072 67.639 65.2594 66.75L67.3758 65.7967C67.3758 66.4319 67.5879 66.8764 67.6307 67.3209C67.6725 67.7664 67.6307 68.0835 67.6307 68.5494L65.6824 69.3752ZM70.7433 66.6857C70.7433 67.8296 69.9807 67.8714 69.0274 67.9775C68.8689 67.383 68.8411 66.7596 68.9471 66.1523C69.0531 65.545 69.2898 64.9688 69.6422 64.4632L67.8417 63.4671L65.2797 65.0556C65.2797 64.0177 65.1533 63.3622 65.0891 62.4303L70.1713 60.5667C70.3191 62.832 70.4894 64.7589 70.6158 66.6857H70.7433ZM70.1285 59.487L64.8566 61.1386C64.8566 60.3546 64.8566 59.6777 64.666 59.0211L66.339 58.4277L67.0159 59.8887C67.2912 58.9997 67.4615 58.492 67.6511 57.92L69.5148 57.5387C69.5994 58.1321 69.79 58.7876 70.0021 59.487H70.1285ZM64.2215 56.8821C63.7973 56.0146 64.4121 55.6118 65.3011 55.3366L66.0852 56.819C65.1533 57.2217 64.5385 57.7722 64.094 56.8821H64.2215ZM69.1335 53.6004C69.1335 54.4262 69.1335 55.252 69.1335 56.2684L67.0159 56.6069C66.8928 56.4087 66.8156 56.1849 66.7921 55.9524C66.7685 55.719 66.7996 55.4844 66.881 55.2659C66.9635 55.0463 67.0941 54.8492 67.2644 54.6886C67.4347 54.529 67.6393 54.4101 67.8632 54.3415C68.253 54.1188 68.6279 53.8713 68.9857 53.6004L66.3808 53.4526C66.2544 52.7114 66.1055 52.0334 65.9791 51.335L67.5247 50.7631L69.0071 53.6421L69.1335 53.6004ZM67.1006 46.9093C66.8467 49.8312 66.4654 50.1697 62.8666 50.6785C62.6331 50.0433 62.4007 49.3867 62.104 48.5609C62.994 48.3189 63.8702 48.0297 64.7292 47.6923C65.4072 47.3753 66.0852 46.6973 67.1006 46.9093ZM59.7958 48.2225C59.7958 47.5659 59.9436 47.206 60.0079 46.8247H61.0243C61.2782 45.9143 61.0243 44.6012 62.6331 44.4533C62.8452 44.9396 63.099 45.4902 63.4171 46.2528L59.7958 48.2225ZM66.55 45.427L64.7292 46.2099C64.4785 45.608 64.3147 44.9739 64.2429 44.3259C64.2429 43.86 64.8138 43.4787 65.3643 42.7375C65.7885 43.7754 66.1269 44.4105 66.5297 45.427H66.55ZM64.9841 41.8903L63.4589 42.6111C63.0358 41.8056 62.6117 41.0441 62.2314 40.3029C64.0308 38.7991 64.2429 38.9266 64.9841 41.8903ZM63.6495 37.9316L61.7859 38.948L60.7491 36.6816L62.7177 35.4541C63.099 36.3646 63.3528 37.0629 63.6924 37.9316H63.6495ZM62.3364 33.1245C62.1886 34.1828 61.6809 34.8822 60.8123 34.9668C60.3463 34.9668 59.8172 34.4377 59.3299 34.1196C60.0925 32.6372 61.1304 32.8493 62.3792 33.1245H62.3364ZM60.2189 31.3037L58.5887 32.7015L58.187 32.4894C58.187 32.1295 58.187 31.6636 58.3563 31.4301C58.5255 31.1977 59.3727 30.4993 60.2617 31.3037H60.2189ZM59.0128 29.5878L57.6783 30.4351C56.9156 29.8213 56.9156 29.2708 57.6783 28.8049C58.4409 28.339 58.6315 28.8895 59.0128 29.5878ZM45.9264 15.4861C49.6291 18.4058 53.0084 21.7133 56.0052 25.3539C56.0052 25.3539 56.2387 25.5649 56.2387 25.6709C56.2387 25.777 56.2387 26.4549 56.2387 26.8566C55.836 26.8566 55.2641 26.8566 55.0734 26.6242C54.2476 25.6077 53.5707 24.5066 52.8081 23.4056C52.4064 22.8336 51.9823 22.1985 50.818 22.5584C52.1151 24.8762 53.5878 27.0922 55.2223 29.1862L52.7866 30.3719C51.6438 28.3818 50.6691 26.4549 49.4203 24.5698C48.8997 23.8972 48.3267 23.2663 47.7055 22.6858C46.583 21.5205 45.5879 20.293 44.3594 19.1705C44.0638 18.9124 43.8699 18.5579 43.811 18.1701C43.7532 17.7822 43.8346 17.3862 44.0424 17.053L50.1614 21.8386C50.2943 21.3802 50.2686 20.8896 50.0875 20.4473C49.9076 20.006 49.582 19.6375 49.1664 19.403C47.5566 18.0059 45.9692 16.5872 44.3808 15.1686L44.6979 14.7662C45.1263 14.9733 45.5365 15.2141 45.9264 15.4861ZM39.5738 14.131C39.6831 14.2945 39.7548 14.4801 39.7838 14.6744C39.8127 14.8688 39.7977 15.067 39.7409 15.2552C39.6852 15.4433 39.5867 15.6166 39.456 15.7627C39.3242 15.9088 39.1625 16.024 38.9815 16.1002C38.8123 17.3707 40.4842 18.2173 39.8705 19.5304L38.3035 20.2502C38.9173 21.0974 37.7744 21.0546 37.753 21.2881C37.7862 21.8772 37.9372 22.4534 38.1975 22.9814C37.0964 24.21 36.6733 21.6479 35.4662 22.6012L36.186 24.3578L35.2124 25.4588L31.9938 23.3424H31.8878C31.4004 24.0407 31.8878 24.4435 32.3537 24.9083C32.8196 25.3742 32.5861 25.8401 31.7603 26.1154C31.3158 25.4588 30.8295 24.7391 30.173 23.7226L31.8878 23.3424C31.9317 23.05 32.0763 22.7822 32.2969 22.5851C32.5176 22.3881 32.7992 22.2734 33.0949 22.2617C34.7251 22.071 35.614 20.6947 36.8426 19.8903C37.1917 19.5797 37.4102 19.1491 37.4563 18.6832C37.6245 17.5904 37.7101 16.4862 37.7112 15.3803C37.6373 14.8821 37.4156 14.4175 37.0761 14.0463C36.1646 12.8182 35.2124 11.6112 34.1959 10.2772C35.3827 10.2764 36.5395 10.6479 37.5045 11.3391C38.4695 12.0304 39.1936 13.0068 39.5738 14.131ZM29.2197 9.26081C30.6806 9.43025 31.3372 10.7007 32.2476 11.59C33.0627 12.4614 33.8328 13.3731 34.5558 14.3216C34.4691 14.4507 34.3695 14.5713 34.2591 14.6815C32.81 14.2338 31.5322 13.3548 30.596 12.1617C29.8367 10.8591 28.7484 9.77857 27.4406 9.02795C26.8773 8.61773 26.3396 8.17216 25.8319 7.69393C27.7802 7.14339 28.0126 9.11257 29.2197 9.26081ZM22.8671 4.68709C23.0289 4.84261 23.1456 5.03872 23.2056 5.25476C23.2645 5.4708 23.2656 5.69894 23.2067 5.91529C23.0364 6.23287 22.3809 6.38111 21.9353 6.33869C21.4908 6.29639 21.343 5.89408 21.0677 5.61882L18.6535 3.28965C20.5172 3.81898 21.7243 4.17897 22.9518 4.68709H22.8671ZM-42.5619 117.674C-43.2844 119.185 -44.1797 120.606 -45.2299 121.909L-45.5898 121.74C-45.5887 121.394 -45.5315 121.05 -45.4205 120.724C-43.6206 116.721 -41.7785 112.762 -40.0209 108.76C-39.1739 106.854 -38.5176 104.885 -37.7765 102.937C-37.5275 102.128 -37.1939 101.347 -36.7812 100.608C-34.9179 97.8338 -34.1133 94.4888 -31.8687 91.9257C-31.224 89.7985 -30.1178 87.8395 -28.6291 86.1879C-26.5116 83.266 -25.3046 79.8354 -23.0813 77.0409C-20.0534 73.2075 -17.216 69.2274 -14.315 65.289C-13.828 64.6539 -13.3622 64.0819 -12.5364 64.0605C-11.8588 64.6325 -12.2822 65.0555 -12.5364 65.4583C-15.1196 68.7401 -17.7453 71.9801 -20.2439 75.3251C-21.4085 76.8706 -22.3614 78.6283 -23.3142 80.2595C-23.7801 80.9793 -24.3094 81.6144 -24.7964 82.376C-27.2103 85.9127 -29.0313 89.745 -31.3394 93.4081C-33.5378 97.114 -35.4559 100.978 -37.0777 104.969C-38.9411 109.12 -40.762 113.398 -42.5619 117.674ZM38.1129 110.56C36.1399 114.975 33.3766 118.994 29.9609 122.417C29.5378 122.82 29.0923 123.158 28.6478 123.54L28.2032 123.223C28.5631 122.651 28.9026 122.057 29.2829 121.507C30.9773 118.945 32.8196 116.467 34.3652 113.842C36.3766 110.411 38.1343 106.833 40.0612 103.254C41.2254 101.211 42.1423 99.0355 42.7924 96.7755C43.3376 95.1068 44.0466 93.497 44.9099 91.9685C45.9007 90.65 46.3827 89.0188 46.2649 87.3736C47.472 87.5428 47.3873 88.3686 47.1763 89.0038C46.7147 90.2944 46.1545 91.5465 45.5033 92.7515C44.5072 94.4791 43.9267 96.4146 43.8089 98.4057C43.7135 99.2412 43.4468 100.049 43.0259 100.777C41.4375 104.039 39.6799 107.256 38.1129 110.56ZM-12.8117 69.206C-12.3247 70.8147 -13.341 71.6202 -13.8704 72.5724C-15.0138 74.5635 -16.2631 76.469 -17.5124 78.3744C-18.7617 80.2799 -20.2863 82.1435 -21.5144 84.1336C-23.6318 87.5214 -26.4269 90.4862 -27.6973 94.3185C-27.7228 94.4513 -27.7811 94.5745 -27.8668 94.6784C-30.5136 97.008 -30.8524 100.545 -32.4405 103.424C-32.5214 103.6 -32.6365 103.759 -32.7793 103.89C-32.7793 103.89 -33.0122 103.89 -33.4145 103.89C-33.3643 102.225 -32.8749 100.604 -31.9958 99.1887C-30.4712 96.1404 -28.9678 93.091 -27.2103 90.2109C-25.4529 87.3318 -23.6318 85.1501 -21.832 82.5248C-20.4344 80.4073 -19.1428 78.2898 -17.7453 76.1723C-16.3479 74.0547 -14.9291 72.0861 -13.5105 70.0318C-13.3622 69.8197 -13.1717 69.3538 -12.8117 69.206ZM-12.7058 120.639C-12.5937 120.195 -12.4228 119.767 -12.1976 119.369C-10.0801 116.51 -7.79357 113.693 -5.71782 110.899C-3.64314 108.103 -1.94869 105.245 -0.0218201 102.429C1.4809 100.311 3.04789 98.0673 4.5731 95.8651C4.89014 95.3992 5.18684 94.869 5.48352 94.3828L6.94447 91.9053L7.5582 92.1592C7.34185 93.0803 7.04408 93.98 6.66921 94.8487C6.01263 96.0558 5.14399 97.1354 4.4028 98.2997C3.66161 99.4639 3.19677 100.417 2.51878 101.475C1.84078 102.535 0.803978 104.102 -0.106438 105.372C-1.01793 106.642 -2.22396 108.357 -3.40965 109.735C-3.55317 109.85 -3.67099 109.995 -3.75774 110.158C-3.84343 110.32 -3.89591 110.499 -3.91198 110.682C-3.92697 110.867 -3.90662 111.051 -3.84879 111.227C-3.79202 111.402 -3.70098 111.564 -3.57995 111.703C-5.57001 112.084 -6.248 113.715 -7.20019 115.049C-8.15324 116.383 -8.7885 117.442 -9.63551 118.628C-9.98158 119.156 -10.4328 119.607 -10.9611 119.953C-11.4893 120.299 -12.0832 120.532 -12.7058 120.639ZM-15.8184 115.006C-11.2659 108.443 -7.77216 101.18 -2.90195 94.8487L-2.56349 94.9965C-2.55171 95.0522 -2.55171 95.11 -2.56349 95.1657C-2.53243 95.291 -2.53243 95.4217 -2.56349 95.547C-3.23613 97.1011 -3.99982 98.6146 -4.85025 100.079C-8.25917 105.329 -11.2024 110.92 -15.4373 115.557C-15.5432 115.684 -15.7761 115.705 -16.0726 115.832C-16.0455 115.523 -15.9592 115.221 -15.8184 114.943V115.006ZM11.7086 98.9134C10.734 100.29 9.59111 101.624 8.76531 103.022C8.27797 103.763 8.04554 104.694 7.53678 105.415C6.13902 107.763 4.51527 109.968 2.688 112C0.803978 113.842 -0.636627 116.023 -2.41461 117.907C-2.81841 118.29 -3.24255 118.65 -3.68491 118.988L-4.10906 118.563C-2.09757 116.044 -0.0432434 113.545 1.88363 110.941C3.81049 108.337 5.77914 105.435 7.66424 102.641C8.68069 101.116 9.56969 99.5282 10.5229 97.9826C10.6879 97.6988 10.9032 97.4471 11.1581 97.2414C11.3273 97.114 11.7301 97.0294 11.8564 97.1354C11.9839 97.2415 12.3224 97.686 12.2806 97.9184C12.1885 98.2568 12.03 98.5739 11.8147 98.8502L11.7086 98.9134ZM7.21974 126.652C3.91653 130.146 0.379829 133.449 -3.07118 136.817C-3.4075 137.06 -3.76953 137.267 -4.15083 137.43C-4.91344 136.731 -5.18871 136.181 -4.38432 135.545C-3.19864 134.635 -2.07615 133.618 -0.847618 132.793C3.07574 130.073 6.48177 126.674 9.20981 122.757C11.0735 120.195 12.619 117.399 14.5877 114.287C14.2707 115.26 14.1228 115.832 13.9108 116.404C12.3706 120.225 10.0977 123.706 7.21974 126.652ZM34.4712 106.685C35.6451 104.342 36.6776 101.931 37.5623 99.464C37.6362 99.0655 37.844 98.7045 38.1525 98.4421C38.462 98.1797 38.8519 98.033 39.2568 98.0244C39.0983 99.1201 38.8358 100.198 38.4727 101.243C37.6469 103.022 36.5673 104.674 35.6997 106.41C35.0432 107.68 34.6404 109.078 33.9421 110.305C32.7136 112.423 31.3372 114.54 29.9823 116.658C29.6867 117.159 29.3386 117.627 28.9444 118.056C28.4367 118.585 27.8648 119.072 27.3357 119.58L26.9961 119.326C27.0807 119.003 27.2018 118.691 27.356 118.394C29.7285 114.477 32.2477 110.665 34.4712 106.685ZM-0.0432434 123.413C1.56552 121.528 2.92151 119.729 4.50884 118.14C7.33221 115.093 9.85674 111.781 12.0471 108.252C12.3856 107.743 12.7669 107.256 13.1482 106.77L13.5509 106.981C13.2178 108.012 12.7776 109.006 12.2377 109.946C10.1791 113.417 7.70494 116.624 4.86873 119.495C4.56989 119.836 4.21965 120.129 3.83192 120.364C3.40777 120.528 3.02325 120.781 2.70621 121.106C2.3881 121.431 2.1439 121.821 1.98966 122.248C1.86542 122.667 1.58587 123.021 1.20671 123.239C0.827545 123.455 0.379837 123.518 -0.0432434 123.413ZM24.7522 134.403C24.4984 134.655 24.2778 134.94 24.0957 135.25C21.6889 136.388 19.6003 138.105 18.0184 140.246C17.0019 139.908 16.9601 139.188 17.4678 138.595C18.1779 137.674 19.0455 136.885 20.0298 136.266C24.3035 133.989 28.1283 130.954 31.3158 127.309C31.5493 128.622 31.5493 128.728 30.4482 129.659C28.6478 131.226 26.7209 132.814 24.7522 134.403ZM-23.293 97.114C-19.9263 91.9471 -16.5807 86.7599 -13.0234 81.2545C-12.9756 81.8008 -13.0185 82.3524 -13.1505 82.8847C-14.3363 85.2143 -15.5644 87.5214 -16.8349 89.8092C-17.343 90.7197 -18.0418 91.5026 -18.5711 92.3916C-19.7146 94.4888 -21.7262 95.5684 -23.2083 97.22L-23.293 97.114ZM14.7998 136.435L24.1374 127.627C24.4984 128.177 24.2863 128.707 23.8836 129.257C23.2067 130.209 22.5501 131.205 21.8935 132.158C21.7029 132.411 21.4908 132.751 21.237 132.857C19.3519 133.772 17.667 135.053 16.2821 136.626C15.8376 137.155 15.2657 137.452 14.7998 136.435ZM43.9149 78.5019H43.4704C43.3676 77.8003 43.3172 77.0923 43.3215 76.3843C43.6718 72.7438 43.6718 69.0774 43.3215 65.4368C43.3215 65.4368 43.4704 65.2462 43.6611 65.0341C44.9314 65.3737 45.0374 66.6857 45.016 67.4912C45.0738 71.1907 44.7043 74.8859 43.9149 78.5019ZM34.7036 98.4271L35.9107 94.9536L39.1508 85.6374C39.5106 85.9726 39.7591 86.4107 39.8609 86.8916C39.9637 87.3725 39.9155 87.8738 39.7227 88.3269C38.6966 91.5562 37.4006 94.6944 35.8475 97.7074C35.7233 97.9055 35.5562 98.0737 35.3581 98.1979C35.161 98.3232 34.9371 98.4014 34.7036 98.4271ZM-2.119 121.486C-0.890465 120.13 0.401253 118.818 1.65013 117.484C1.83328 117.205 2.07106 116.968 2.34954 116.785C2.688 116.616 3.30173 116.341 3.47204 116.489C4.00115 116.955 3.61985 117.421 3.21712 117.802L1.79901 119.157L-5.35794 126.102C-5.76067 126.483 -6.07771 126.949 -6.45901 127.372L-6.90351 126.992C-5.31617 125.17 -3.72775 123.307 -2.119 121.486ZM15.2025 123.011C14.1014 124.006 13.5509 125.657 11.6026 126.123L23.3759 111.851C23.0203 113.265 22.3305 114.573 21.3644 115.663C20.3694 116.87 19.4375 118.14 18.4414 119.347C17.4421 120.636 16.3593 121.86 15.2025 123.011ZM-8.89432 135.821C-8.89432 135.504 -8.89432 135.207 -8.74619 135.101C-5.48433 132.804 -2.4371 130.218 0.358414 127.372C0.358414 127.372 0.613327 127.372 0.908951 127.224C0.147408 129.744 -4.27829 133.598 -8.89432 135.821ZM26.1071 115.24C25.1078 118.571 22.9914 121.457 20.1145 123.413C21.675 120.393 23.6972 117.636 26.1071 115.24ZM39.7227 95.9069C40.3461 92.8393 41.2019 89.8242 42.2847 86.8863C43.3215 87.1198 43.4918 87.5857 43.3012 88.1576C43.0045 89.1527 42.6446 90.1263 42.2633 91.0795C41.882 92.0317 41.3529 93.5141 40.8441 94.6998C40.6074 95.2107 40.2143 95.6327 39.7227 95.9069ZM29.1351 110.877C30.0059 107.968 31.2515 105.186 32.841 102.598C33.8575 104.039 33.0317 105.075 32.6504 105.944C31.9552 107.875 30.7471 109.58 29.1565 110.877H29.1351ZM45.5879 107.49L48.3192 102.789H48.7637C48.8504 103.287 48.8504 103.794 48.7637 104.292C48.0439 105.817 47.5566 107.171 45.6094 107.49H45.5879ZM-11.2447 134.741C-10.0638 132.87 -8.31154 131.43 -6.248 130.633C-7.60934 132.334 -9.31171 133.734 -11.2447 134.741ZM-11.0331 126.992C-10.3446 125.457 -9.11625 124.228 -7.5815 123.54C-8.39819 124.981 -9.59116 126.174 -11.0331 126.992ZM24.3077 122.757L24.6462 123.011L22.1056 126.208C22.2748 124.725 22.2748 124.725 24.3077 122.757ZM9.04057 21.5205L8.72247 21.6265C8.72247 21.3727 8.57465 21.1188 8.49004 20.865L8.80708 20.7589C8.89277 21.1188 8.97738 21.2666 9.04057 21.5205ZM-64.1811 151.85C-64.0757 151.863 -63.9744 151.9 -63.8847 151.956C-63.8847 152.083 -63.8847 152.232 -63.8847 152.295L-64.9222 153.162C-65.0493 152.951 -65.2821 152.718 -65.2398 152.549C-65.223 152.43 -65.1811 152.316 -65.117 152.215C-65.0528 152.114 -64.9679 152.027 -64.8678 151.961C-64.7677 151.895 -64.6548 151.851 -64.5363 151.832C-64.418 151.813 -64.2969 151.819 -64.1811 151.85Z" fill="#101A24"/>
</g>
</svg>
